<?xml version="1.0" encoding="UTF-8" standalone="no"?>
<!-- Created with Inkscape (http://www.inkscape.org/) -->

<svg
   xmlns:dc="http://purl.org/dc/elements/1.1/"
   xmlns:cc="http://creativecommons.org/ns#"
   xmlns:rdf="http://www.w3.org/1999/02/22-rdf-syntax-ns#"
   xmlns:svg="http://www.w3.org/2000/svg"
   xmlns="http://www.w3.org/2000/svg"
   xmlns:sodipodi="http://sodipodi.sourceforge.net/DTD/sodipodi-0.dtd"
   xmlns:inkscape="http://www.inkscape.org/namespaces/inkscape"
   width="160.6895mm"
   height="261.17975mm"
   viewBox="0 0 160.6895 261.17975"
   version="1.1"
   id="svg1836"
   inkscape:version="0.92.3 (2405546, 2018-03-11)"
   sodipodi:docname="benzen2.svg">
  <defs
     id="defs1830" />
  <sodipodi:namedview
     id="base"
     pagecolor="#ffffff"
     bordercolor="#666666"
     borderopacity="1.0"
     inkscape:pageopacity="0.0"
     inkscape:pageshadow="2"
     inkscape:zoom="0.66245342"
     inkscape:cx="138.4814"
     inkscape:cy="536.36681"
     inkscape:document-units="mm"
     inkscape:current-layer="layer1"
     showgrid="false"
     inkscape:window-width="1600"
     inkscape:window-height="853"
     inkscape:window-x="-4"
     inkscape:window-y="-4"
     inkscape:window-maximized="1"
     fit-margin-top="0"
     fit-margin-left="0"
     fit-margin-right="0"
     fit-margin-bottom="0" />
  <metadata
     id="metadata1833">
    <rdf:RDF>
      <cc:Work
         rdf:about="">
        <dc:format>image/svg+xml</dc:format>
        <dc:type
           rdf:resource="http://purl.org/dc/dcmitype/StillImage" />
        <dc:title />
      </cc:Work>
    </rdf:RDF>
  </metadata>
  <g
     inkscape:label="Layer 1"
     inkscape:groupmode="layer"
     id="layer1"
     transform="translate(-25.63098,-20.215929)">
    <path
       style="fill:none;stroke:#000000;stroke-width:0.40183485;stroke-linecap:butt;stroke-linejoin:miter;stroke-miterlimit:4;stroke-dasharray:none;stroke-opacity:1"
       d="m 40.807501,176.90989 3.97e-4,-54.89811 v 0"
       id="path860"
       inkscape:connector-curvature="0" />
    <path
       style="fill:none;stroke:#000000;stroke-width:0.40183485;stroke-linecap:butt;stroke-linejoin:miter;stroke-miterlimit:4;stroke-dasharray:none;stroke-opacity:1"
       d="m 170.80762,176.71141 2.6e-4,-54.69967"
       id="path862"
       inkscape:connector-curvature="0" />
    <path
       style="fill:#ff0000;fill-opacity:1;stroke:#000000;stroke-width:0;stroke-linecap:butt;stroke-linejoin:miter;stroke-miterlimit:4;stroke-dasharray:none;stroke-opacity:1"
       d="M 105.80794,68.5225 91.757215,57.656921 119.88895,57.692999 Z"
       id="path1591"
       inkscape:connector-curvature="0" />
    <path
       style="opacity:1;fill:#ff0000;fill-opacity:1;stroke:#000000;stroke-width:0.72200006;stroke-linejoin:miter;stroke-miterlimit:4;stroke-dasharray:none;stroke-dashoffset:0;stroke-opacity:1"
       id="path815-9-5"
       sodipodi:type="arc"
       sodipodi:cx="41.449032"
       sodipodi:cy="-105.90221"
       sodipodi:rx="21.008118"
       sodipodi:ry="21.882668"
       sodipodi:start="0.6981317"
       sodipodi:end="5.5850536"
       d="m 57.542184,-91.836299 a 21.008118,21.882668 0 0 1 -23.278352,6.497074 21.008118,21.882668 0 0 1 -13.822918,-20.562985 21.008118,21.882668 0 0 1 13.822918,-20.56298 21.008118,21.882668 0 0 1 23.278352,6.49708"
       sodipodi:open="true"
       transform="matrix(-0.0013939,0.99999903,-0.99999917,-0.00128471,0,0)" />
    <path
       style="fill:#ff0000;fill-opacity:1;stroke:#000000;stroke-width:0.72200006;stroke-linecap:butt;stroke-linejoin:miter;stroke-miterlimit:4;stroke-dasharray:none;stroke-opacity:1"
       d="M 91.757215,57.656921 105.80794,68.522514"
       id="path840-3"
       inkscape:connector-curvature="0" />
    <path
       style="fill:#ff0000;fill-opacity:1;stroke:#000000;stroke-width:0.72200006;stroke-linecap:butt;stroke-linejoin:miter;stroke-miterlimit:4;stroke-dasharray:none;stroke-opacity:1"
       d="M 119.88895,57.693056 105.80794,68.522514"
       id="path838-6"
       inkscape:connector-curvature="0" />
    <path
       style="opacity:1;fill:none;fill-opacity:1;stroke:#000000;stroke-width:0.72200006;stroke-linejoin:miter;stroke-miterlimit:4;stroke-dasharray:none;stroke-dashoffset:0;stroke-opacity:1"
       id="path815-9-5-0"
       sodipodi:type="arc"
       sodipodi:cx="-95.168617"
       sodipodi:cy="-105.71473"
       sodipodi:rx="21.008118"
       sodipodi:ry="21.882668"
       sodipodi:start="0.6981317"
       sodipodi:end="5.5850536"
       d="m -79.075465,-91.648822 a 21.008118,21.882668 0 0 1 -23.278355,6.497074 21.008118,21.882668 0 0 1 -13.82291,-20.562982 21.008118,21.882668 0 0 1 13.82291,-20.56298 21.008118,21.882668 0 0 1 23.278354,6.49707"
       sodipodi:open="true"
       transform="matrix(-0.00139391,-0.99999903,-0.99999917,0.00128472,0,0)" />
    <path
       style="fill:none;stroke:#000000;stroke-width:0.72200006;stroke-linecap:butt;stroke-linejoin:miter;stroke-miterlimit:4;stroke-dasharray:none;stroke-opacity:1"
       d="m 119.88952,78.918994 -14.081,-10.829448"
       id="path838-6-6"
       inkscape:connector-curvature="0" />
    <path
       style="fill:none;stroke:#000000;stroke-width:0.72200006;stroke-linecap:butt;stroke-linejoin:miter;stroke-miterlimit:4;stroke-dasharray:none;stroke-opacity:1"
       d="M 91.757792,78.955125 105.80852,68.089546"
       id="path840-3-9"
       inkscape:connector-curvature="0" />
    <path
       style="fill:#ff0000;fill-opacity:1;stroke:#000000;stroke-width:0;stroke-linecap:butt;stroke-linejoin:miter;stroke-miterlimit:4;stroke-dasharray:none;stroke-opacity:1"
       d="m 40.85814,108.82848 9.575594,-7.62778 -19.088393,-0.0782 z"
       id="path1591-1"
       inkscape:connector-curvature="0" />
    <path
       style="opacity:1;fill:#ff0000;fill-opacity:1;stroke:#000000;stroke-width:0.5;stroke-linejoin:miter;stroke-miterlimit:4;stroke-dasharray:none;stroke-dashoffset:0;stroke-opacity:1"
       id="path815-9-5-8"
       sodipodi:type="arc"
       sodipodi:cx="89.620728"
       sodipodi:cy="41.304207"
       sodipodi:rx="14.848292"
       sodipodi:ry="14.848291"
       sodipodi:start="0.6981317"
       sodipodi:end="5.5850536"
       d="m 100.99518,50.848505 a 14.848292,14.848291 0 0 1 -16.452868,4.408532 14.848292,14.848291 0 0 1 -9.769877,-13.95283 14.848292,14.848291 0 0 1 9.769877,-13.95283 14.848292,14.848291 0 0 1 16.452868,4.408532"
       sodipodi:open="true"
       transform="matrix(-0.00409673,0.99999161,0.99999161,0.00409673,0,0)" />
    <path
       style="fill:#ff0000;fill-opacity:1;stroke:#000000;stroke-width:0.5;stroke-linecap:butt;stroke-linejoin:miter;stroke-miterlimit:4;stroke-dasharray:none;stroke-opacity:1"
       d="m 50.433734,101.2007 -9.575594,7.62779"
       id="path840-3-94"
       inkscape:connector-curvature="0" />
    <path
       style="fill:#ff0000;fill-opacity:1;stroke:#000000;stroke-width:0.5;stroke-linecap:butt;stroke-linejoin:miter;stroke-miterlimit:4;stroke-dasharray:none;stroke-opacity:1"
       d="m 31.345341,101.12249 9.512799,7.706"
       id="path838-6-7"
       inkscape:connector-curvature="0" />
    <path
       style="opacity:1;fill:#ffffff;fill-opacity:1;stroke:#000000;stroke-width:0.5;stroke-linejoin:miter;stroke-miterlimit:4;stroke-dasharray:none;stroke-dashoffset:0;stroke-opacity:1"
       id="path815-9-5-0-8"
       sodipodi:type="arc"
       sodipodi:cx="-127.28593"
       sodipodi:cy="41.592888"
       sodipodi:rx="14.848292"
       sodipodi:ry="14.848291"
       sodipodi:start="0.6981317"
       sodipodi:end="5.5850536"
       d="m -115.91147,51.137186 a 14.848292,14.848291 0 0 1 -16.45287,4.408532 14.848292,14.848291 0 0 1 -9.76988,-13.95283 14.848292,14.848291 0 0 1 9.76988,-13.95283 14.848292,14.848291 0 0 1 16.45286,4.408532"
       sodipodi:open="true"
       transform="rotate(-89.611928)" />
    <path
       style="fill:none;stroke:#000000;stroke-width:0.5;stroke-linecap:butt;stroke-linejoin:miter;stroke-miterlimit:4;stroke-dasharray:none;stroke-opacity:1"
       d="m 31.263414,116.1246 9.595999,-7.60213"
       id="path838-6-6-6"
       inkscape:connector-curvature="0" />
    <path
       style="fill:none;stroke:#000000;stroke-width:0.5;stroke-linecap:butt;stroke-linejoin:miter;stroke-miterlimit:4;stroke-dasharray:none;stroke-opacity:1"
       d="m 50.35153,116.25388 -9.492117,-7.73141"
       id="path840-3-9-9"
       inkscape:connector-curvature="0" />
    <path
       style="fill:#ff0000;fill-opacity:1;stroke:#000000;stroke-width:0;stroke-linecap:butt;stroke-linejoin:miter;stroke-miterlimit:4;stroke-dasharray:none;stroke-opacity:1"
       d="m 170.86206,108.82779 9.37518,-7.8728 -19.08404,0.4153 z"
       id="path1591-1-2"
       inkscape:connector-curvature="0" />
    <path
       style="opacity:1;fill:#ff0000;fill-opacity:1;stroke:#000000;stroke-width:0.5;stroke-linejoin:miter;stroke-miterlimit:4;stroke-dasharray:none;stroke-dashoffset:0;stroke-opacity:1"
       id="path815-9-5-8-6"
       sodipodi:type="arc"
       sodipodi:cx="93.48027"
       sodipodi:cy="168.45081"
       sodipodi:rx="14.848292"
       sodipodi:ry="14.848291"
       sodipodi:start="0.6981317"
       sodipodi:end="5.5850536"
       d="m 104.85472,177.9951 a 14.848292,14.848291 0 0 1 -16.452865,4.40854 14.848292,14.848291 0 0 1 -9.769877,-13.95283 14.848292,14.848291 0 0 1 9.769877,-13.95283 14.848292,14.848291 0 0 1 16.452865,4.40853"
       sodipodi:open="true"
       transform="matrix(0.02175889,0.99976325,0.99976325,-0.02175889,0,0)" />
    <path
       style="fill:#ff0000;fill-opacity:1;stroke:#000000;stroke-width:0.5;stroke-linecap:butt;stroke-linejoin:miter;stroke-miterlimit:4;stroke-dasharray:none;stroke-opacity:1"
       d="m 180.23724,100.95499 -9.37518,7.87281"
       id="path840-3-94-7"
       inkscape:connector-curvature="0" />
    <path
       style="fill:#ff0000;fill-opacity:1;stroke:#000000;stroke-width:0.5;stroke-linecap:butt;stroke-linejoin:miter;stroke-miterlimit:4;stroke-dasharray:none;stroke-opacity:1"
       d="m 161.1532,101.37033 9.70886,7.45747"
       id="path838-6-7-1"
       inkscape:connector-curvature="0" />
    <path
       style="opacity:1;fill:#ffffff;fill-opacity:1;stroke:#000000;stroke-width:0.5;stroke-linejoin:miter;stroke-miterlimit:4;stroke-dasharray:none;stroke-dashoffset:0;stroke-opacity:1"
       id="path815-9-5-0-8-4"
       sodipodi:type="arc"
       sodipodi:cx="-130.80522"
       sodipodi:cy="168.75616"
       sodipodi:rx="14.848292"
       sodipodi:ry="14.848291"
       sodipodi:start="0.6981317"
       sodipodi:end="5.5850536"
       d="m -119.43077,178.30046 a 14.848292,14.848291 0 0 1 -16.45287,4.40853 14.848292,14.848291 0 0 1 -9.76987,-13.95283 14.848292,14.848291 0 0 1 9.76987,-13.95283 14.848292,14.848291 0 0 1 16.45287,4.40854"
       sodipodi:open="true"
       transform="rotate(-91.093445)" />
    <path
       style="fill:none;stroke:#000000;stroke-width:0.5;stroke-linecap:butt;stroke-linejoin:miter;stroke-miterlimit:4;stroke-dasharray:none;stroke-opacity:1"
       d="m 161.45918,116.36954 9.39624,-7.84769"
       id="path838-6-6-6-9"
       inkscape:connector-curvature="0" />
    <path
       style="fill:none;stroke:#000000;stroke-width:0.5;stroke-linecap:butt;stroke-linejoin:miter;stroke-miterlimit:4;stroke-dasharray:none;stroke-opacity:1"
       d="m 180.54426,116.00526 -9.68884,-7.48341"
       id="path840-3-9-9-2"
       inkscape:connector-curvature="0" />
    <path
       style="fill:#ff0000;fill-opacity:1;stroke:#000000;stroke-width:0;stroke-linecap:butt;stroke-linejoin:miter;stroke-miterlimit:4;stroke-dasharray:none;stroke-opacity:1"
       d="m 40.807552,193.52106 -9.533998,7.67972 19.088538,-0.0255 z"
       id="path1591-1-9"
       inkscape:connector-curvature="0" />
    <path
       style="opacity:1;fill:#ff0000;fill-opacity:1;stroke:#000000;stroke-width:0.5;stroke-linejoin:miter;stroke-miterlimit:4;stroke-dasharray:none;stroke-dashoffset:0;stroke-opacity:1"
       id="path815-9-5-8-5"
       sodipodi:type="arc"
       sodipodi:cx="-212.617"
       sodipodi:cy="-40.548012"
       sodipodi:rx="14.848292"
       sodipodi:ry="14.848294"
       sodipodi:start="0.6981317"
       sodipodi:end="5.5850536"
       d="m -201.24255,-31.003712 a 14.848292,14.848294 0 0 1 -16.45287,4.408533 14.848292,14.848294 0 0 1 -9.76988,-13.952833 14.848292,14.848294 0 0 1 9.76988,-13.952832 14.848292,14.848294 0 0 1 16.45287,4.408533"
       sodipodi:open="true"
       transform="matrix(-0.0013382,-0.9999991,-0.9999991,0.0013382,0,0)" />
    <path
       style="fill:#ff0000;fill-opacity:1;stroke:#000000;stroke-width:0.5;stroke-linecap:butt;stroke-linejoin:miter;stroke-miterlimit:4;stroke-dasharray:none;stroke-opacity:1"
       d="m 31.273554,201.20078 9.533998,-7.67972"
       id="path840-3-94-2"
       inkscape:connector-curvature="0" />
    <path
       style="fill:#ff0000;fill-opacity:1;stroke:#000000;stroke-width:0.5;stroke-linecap:butt;stroke-linejoin:miter;stroke-miterlimit:4;stroke-dasharray:none;stroke-opacity:1"
       d="m 50.362092,201.17523 -9.55454,-7.65417"
       id="path838-6-7-5"
       inkscape:connector-curvature="0" />
    <path
       style="opacity:1;fill:#ffffff;fill-opacity:1;stroke:#000000;stroke-width:0.5;stroke-linejoin:miter;stroke-miterlimit:4;stroke-dasharray:none;stroke-dashoffset:0;stroke-opacity:1"
       id="path815-9-5-0-8-0"
       sodipodi:type="arc"
       sodipodi:cx="174.73209"
       sodipodi:cy="-41.067875"
       sodipodi:rx="14.848292"
       sodipodi:ry="14.848294"
       sodipodi:start="0.6981317"
       sodipodi:end="5.5850536"
       d="m 186.10654,-31.523575 a 14.848292,14.848294 0 0 1 -16.45287,4.408533 14.848292,14.848294 0 0 1 -9.76988,-13.952833 14.848292,14.848294 0 0 1 9.76988,-13.952832 14.848292,14.848294 0 0 1 16.45287,4.408532"
       sodipodi:open="true"
       transform="rotate(90.076673)" />
    <path
       style="fill:none;stroke:#000000;stroke-width:0.5;stroke-linecap:butt;stroke-linejoin:miter;stroke-miterlimit:4;stroke-dasharray:none;stroke-opacity:1"
       d="m 50.362482,186.1729 -9.55454,7.65417"
       id="path838-6-6-6-0"
       inkscape:connector-curvature="0" />
    <path
       style="fill:none;stroke:#000000;stroke-width:0.5;stroke-linecap:butt;stroke-linejoin:miter;stroke-miterlimit:4;stroke-dasharray:none;stroke-opacity:1"
       d="m 31.273944,186.14736 9.533998,7.67971"
       id="path840-3-9-9-6"
       inkscape:connector-curvature="0" />
    <path
       style="fill:#ff0000;fill-opacity:1;stroke:#000000;stroke-width:0;stroke-linecap:butt;stroke-linejoin:miter;stroke-miterlimit:4;stroke-dasharray:none;stroke-opacity:1"
       d="m 170.80757,193.52108 -9.534,7.67972 19.08854,-0.0255 z"
       id="path1591-1-2-0"
       inkscape:connector-curvature="0" />
    <path
       style="opacity:1;fill:#ff0000;fill-opacity:1;stroke:#000000;stroke-width:0.5;stroke-linejoin:miter;stroke-miterlimit:4;stroke-dasharray:none;stroke-dashoffset:0;stroke-opacity:1"
       id="path815-9-5-8-6-6"
       sodipodi:type="arc"
       sodipodi:cx="-212.79099"
       sodipodi:cy="-170.55118"
       sodipodi:rx="14.848292"
       sodipodi:ry="14.848294"
       sodipodi:start="0.6981317"
       sodipodi:end="5.5850536"
       d="m -201.41653,-161.00688 a 14.848292,14.848294 0 0 1 -16.45287,4.40853 14.848292,14.848294 0 0 1 -9.76988,-13.95283 14.848292,14.848294 0 0 1 9.76988,-13.95283 14.848292,14.848294 0 0 1 16.45287,4.40853"
       sodipodi:open="true"
       transform="matrix(-0.0013382,-0.9999991,-0.9999991,0.0013382,0,0)" />
    <path
       style="fill:#ff0000;fill-opacity:1;stroke:#000000;stroke-width:0.5;stroke-linecap:butt;stroke-linejoin:miter;stroke-miterlimit:4;stroke-dasharray:none;stroke-opacity:1"
       d="m 161.27357,201.2008 9.534,-7.67972"
       id="path840-3-94-7-1"
       inkscape:connector-curvature="0" />
    <path
       style="fill:#ff0000;fill-opacity:1;stroke:#000000;stroke-width:0.5;stroke-linecap:butt;stroke-linejoin:miter;stroke-miterlimit:4;stroke-dasharray:none;stroke-opacity:1"
       d="m 180.36211,201.17525 -9.55454,-7.65417"
       id="path838-6-7-1-4"
       inkscape:connector-curvature="0" />
    <path
       style="opacity:1;fill:#ffffff;fill-opacity:1;stroke:#000000;stroke-width:0.5;stroke-linejoin:miter;stroke-miterlimit:4;stroke-dasharray:none;stroke-dashoffset:0;stroke-opacity:1"
       id="path815-9-5-0-8-4-9"
       sodipodi:type="arc"
       sodipodi:cx="174.55811"
       sodipodi:cy="-171.06453"
       sodipodi:rx="14.848292"
       sodipodi:ry="14.848294"
       sodipodi:start="0.6981317"
       sodipodi:end="5.5850536"
       d="m 185.93256,-161.52023 a 14.848292,14.848294 0 0 1 -16.45287,4.40853 14.848292,14.848294 0 0 1 -9.76988,-13.95283 14.848292,14.848294 0 0 1 9.76988,-13.95283 14.848292,14.848294 0 0 1 16.45287,4.40853"
       sodipodi:open="true"
       transform="rotate(90.076673)" />
    <path
       style="fill:none;stroke:#000000;stroke-width:0.5;stroke-linecap:butt;stroke-linejoin:miter;stroke-miterlimit:4;stroke-dasharray:none;stroke-opacity:1"
       d="m 180.3625,186.17292 -9.55454,7.65417"
       id="path838-6-6-6-9-4"
       inkscape:connector-curvature="0" />
    <path
       style="fill:none;stroke:#000000;stroke-width:0.5;stroke-linecap:butt;stroke-linejoin:miter;stroke-miterlimit:4;stroke-dasharray:none;stroke-opacity:1"
       d="m 161.27396,186.14738 9.534,7.67971"
       id="path840-3-9-9-2-1"
       inkscape:connector-curvature="0" />
    <path
       style="fill:none;stroke:#000000;stroke-width:0.5;stroke-linecap:butt;stroke-linejoin:miter;stroke-miterlimit:4;stroke-dasharray:none;stroke-opacity:1"
       d="M 40.807943,108.52233 105.80794,68.5225"
       id="path1769"
       inkscape:connector-curvature="0" />
    <path
       style="fill:none;stroke:#000000;stroke-width:0.5;stroke-linecap:butt;stroke-linejoin:miter;stroke-miterlimit:4;stroke-dasharray:none;stroke-opacity:1"
       d="M 170.80795,108.52233 105.80794,68.5225"
       id="path1771"
       inkscape:connector-curvature="0" />
    <path
       style="fill:none;stroke:#000000;stroke-width:0.5;stroke-linecap:butt;stroke-linejoin:miter;stroke-miterlimit:4;stroke-dasharray:none;stroke-opacity:1"
       d="m 40.807551,193.82838 65.000389,39.69402 64.99963,-39.69404"
       id="path1775"
       inkscape:connector-curvature="0" />
    <path
       style="fill:#ff0000;fill-opacity:1;stroke:#000000;stroke-width:0;stroke-linecap:butt;stroke-linejoin:miter;stroke-miterlimit:4;stroke-dasharray:none;stroke-opacity:1"
       d="m 105.80552,233.08946 14.12595,10.76758 -28.1313,0.1596 z"
       id="path1591-4"
       inkscape:connector-curvature="0" />
    <path
       style="opacity:1;fill:#ff0000;fill-opacity:1;stroke:#000000;stroke-width:0.72200006;stroke-linejoin:miter;stroke-miterlimit:4;stroke-dasharray:none;stroke-dashoffset:0;stroke-opacity:1"
       id="path815-9-5-9"
       sodipodi:type="arc"
       sodipodi:cx="-260.6232"
       sodipodi:cy="104.50868"
       sodipodi:rx="21.008118"
       sodipodi:ry="21.882668"
       sodipodi:start="0.6981317"
       sodipodi:end="5.5850536"
       d="m -244.53005,118.57459 a 21.008118,21.882668 0 0 1 -23.27835,6.49707 21.008118,21.882668 0 0 1 -13.82292,-20.56298 21.008118,21.882668 0 0 1 13.82292,-20.562979 21.008118,21.882668 0 0 1 23.27835,6.497074"
       sodipodi:open="true"
       transform="matrix(-0.00556159,-0.99998453,0.99998392,-0.00567078,0,0)" />
    <path
       style="fill:#ff0000;fill-opacity:1;stroke:#000000;stroke-width:0.72200006;stroke-linecap:butt;stroke-linejoin:miter;stroke-miterlimit:4;stroke-dasharray:none;stroke-opacity:1"
       d="M 119.93147,243.85704 105.80551,233.08945"
       id="path840-3-4"
       inkscape:connector-curvature="0" />
    <path
       style="fill:#ff0000;fill-opacity:1;stroke:#000000;stroke-width:0.72200006;stroke-linecap:butt;stroke-linejoin:miter;stroke-miterlimit:4;stroke-dasharray:none;stroke-opacity:1"
       d="m 91.80016,244.01657 14.00535,-10.92712"
       id="path838-6-67"
       inkscape:connector-curvature="0" />
    <path
       style="opacity:1;fill:none;fill-opacity:1;stroke:#000000;stroke-width:0.72200006;stroke-linejoin:miter;stroke-miterlimit:4;stroke-dasharray:none;stroke-dashoffset:0;stroke-opacity:1"
       id="path815-9-5-0-3"
       sodipodi:type="arc"
       sodipodi:cx="207.44313"
       sodipodi:cy="103.85326"
       sodipodi:rx="21.008118"
       sodipodi:ry="21.882668"
       sodipodi:start="0.6981317"
       sodipodi:end="5.5850536"
       d="m 223.53628,117.91916 a 21.008118,21.882668 0 0 1 -23.27835,6.49708 21.008118,21.882668 0 0 1 -13.82292,-20.56298 21.008118,21.882668 0 0 1 13.82292,-20.562985 21.008118,21.882668 0 0 1 23.27835,6.497074"
       sodipodi:open="true"
       transform="matrix(0.00834934,0.99996514,0.99996605,-0.00824015,0,0)" />
    <path
       style="fill:none;stroke:#000000;stroke-width:0.72200006;stroke-linecap:butt;stroke-linejoin:miter;stroke-miterlimit:4;stroke-dasharray:none;stroke-opacity:1"
       d="m 91.65196,222.79116 14.15598,10.73124"
       id="path838-6-6-1"
       inkscape:connector-curvature="0" />
    <path
       style="fill:none;stroke:#000000;stroke-width:0.72200006;stroke-linecap:butt;stroke-linejoin:miter;stroke-miterlimit:4;stroke-dasharray:none;stroke-opacity:1"
       d="M 119.78276,222.55935 105.80794,233.5224"
       id="path840-3-9-7"
       inkscape:connector-curvature="0" />
    <text
       xml:space="preserve"
       style="font-style:normal;font-variant:normal;font-weight:normal;font-stretch:normal;font-size:22.57777786px;line-height:1.25;font-family:'Times New Roman';-inkscape-font-specification:'Times New Roman, ';letter-spacing:0px;word-spacing:0px;fill:#000000;fill-opacity:1;stroke:none;stroke-width:0.26458332"
       x="93.436668"
       y="157.31349"
       id="text977"><tspan
         sodipodi:role="line"
         id="tspan975"
         x="93.436668"
         y="157.31349"
         style="font-style:normal;font-variant:normal;font-weight:normal;font-stretch:normal;font-size:22.57777786px;line-height:1.25;font-family:'Times New Roman';-inkscape-font-specification:'Times New Roman, ';stroke-width:0.26458332">2π</tspan></text>
  </g>
</svg>
