<?xml version="1.0" encoding="UTF-8" standalone="no"?>
<!-- Created with Inkscape (http://www.inkscape.org/) -->

<svg
   xmlns:dc="http://purl.org/dc/elements/1.1/"
   xmlns:cc="http://creativecommons.org/ns#"
   xmlns:rdf="http://www.w3.org/1999/02/22-rdf-syntax-ns#"
   xmlns:svg="http://www.w3.org/2000/svg"
   xmlns="http://www.w3.org/2000/svg"
   xmlns:sodipodi="http://sodipodi.sourceforge.net/DTD/sodipodi-0.dtd"
   xmlns:inkscape="http://www.inkscape.org/namespaces/inkscape"
   width="160.47687mm"
   height="261.18369mm"
   viewBox="0 0 160.47687 261.18369"
   version="1.1"
   id="svg1836"
   inkscape:version="0.92.3 (2405546, 2018-03-11)"
   sodipodi:docname="benzen4.svg">
  <defs
     id="defs1830" />
  <sodipodi:namedview
     id="base"
     pagecolor="#ffffff"
     bordercolor="#666666"
     borderopacity="1.0"
     inkscape:pageopacity="0.0"
     inkscape:pageshadow="2"
     inkscape:zoom="0.66245342"
     inkscape:cx="138.61466"
     inkscape:cy="359.5988"
     inkscape:document-units="mm"
     inkscape:current-layer="layer1"
     showgrid="false"
     inkscape:window-width="1600"
     inkscape:window-height="853"
     inkscape:window-x="-4"
     inkscape:window-y="-4"
     inkscape:window-maximized="1"
     fit-margin-top="0"
     fit-margin-left="0"
     fit-margin-right="0"
     fit-margin-bottom="0" />
  <metadata
     id="metadata1833">
    <rdf:RDF>
      <cc:Work
         rdf:about="">
        <dc:format>image/svg+xml</dc:format>
        <dc:type
           rdf:resource="http://purl.org/dc/dcmitype/StillImage" />
        <dc:title />
      </cc:Work>
    </rdf:RDF>
  </metadata>
  <g
     inkscape:label="Layer 1"
     inkscape:groupmode="layer"
     id="layer1"
     transform="translate(-25.595722,-20.215929)">
    <path
       style="fill:none;stroke:#000000;stroke-width:0.40183485;stroke-linecap:butt;stroke-linejoin:miter;stroke-miterlimit:4;stroke-dasharray:none;stroke-opacity:1"
       d="m 40.807501,176.90989 3.97e-4,-54.89811 v 0"
       id="path860"
       inkscape:connector-curvature="0" />
    <path
       style="fill:none;stroke:#000000;stroke-width:0.40183485;stroke-linecap:butt;stroke-linejoin:miter;stroke-miterlimit:4;stroke-dasharray:none;stroke-opacity:1"
       d="m 170.80762,176.71141 2.6e-4,-54.69967"
       id="path862"
       inkscape:connector-curvature="0" />
    <path
       style="fill:#ff0000;fill-opacity:1;stroke:#000000;stroke-width:0;stroke-linecap:butt;stroke-linejoin:miter;stroke-miterlimit:4;stroke-dasharray:none;stroke-opacity:1"
       d="M 105.80794,68.5225 91.757215,57.656921 119.88895,57.692999 Z"
       id="path1591"
       inkscape:connector-curvature="0" />
    <path
       style="opacity:1;fill:#ff0000;fill-opacity:1;stroke:#000000;stroke-width:0.72200006;stroke-linejoin:miter;stroke-miterlimit:4;stroke-dasharray:none;stroke-dashoffset:0;stroke-opacity:1"
       id="path815-9-5"
       sodipodi:type="arc"
       sodipodi:cx="41.449032"
       sodipodi:cy="-105.90221"
       sodipodi:rx="21.008118"
       sodipodi:ry="21.882668"
       sodipodi:start="0.6981317"
       sodipodi:end="5.5850536"
       d="m 57.542184,-91.836299 a 21.008118,21.882668 0 0 1 -23.278352,6.497074 21.008118,21.882668 0 0 1 -13.822918,-20.562985 21.008118,21.882668 0 0 1 13.822918,-20.56298 21.008118,21.882668 0 0 1 23.278352,6.49708"
       sodipodi:open="true"
       transform="matrix(-0.0013939,0.99999903,-0.99999917,-0.00128471,0,0)" />
    <path
       style="fill:#ff0000;fill-opacity:1;stroke:#000000;stroke-width:0.72200006;stroke-linecap:butt;stroke-linejoin:miter;stroke-miterlimit:4;stroke-dasharray:none;stroke-opacity:1"
       d="M 91.757215,57.656921 105.80794,68.522514"
       id="path840-3"
       inkscape:connector-curvature="0" />
    <path
       style="fill:#ff0000;fill-opacity:1;stroke:#000000;stroke-width:0.72200006;stroke-linecap:butt;stroke-linejoin:miter;stroke-miterlimit:4;stroke-dasharray:none;stroke-opacity:1"
       d="M 119.88895,57.693056 105.80794,68.522514"
       id="path838-6"
       inkscape:connector-curvature="0" />
    <path
       style="opacity:1;fill:none;fill-opacity:1;stroke:#000000;stroke-width:0.72200006;stroke-linejoin:miter;stroke-miterlimit:4;stroke-dasharray:none;stroke-dashoffset:0;stroke-opacity:1"
       id="path815-9-5-0"
       sodipodi:type="arc"
       sodipodi:cx="-95.168617"
       sodipodi:cy="-105.71473"
       sodipodi:rx="21.008118"
       sodipodi:ry="21.882668"
       sodipodi:start="0.6981317"
       sodipodi:end="5.5850536"
       d="m -79.075465,-91.648822 a 21.008118,21.882668 0 0 1 -23.278355,6.497074 21.008118,21.882668 0 0 1 -13.82291,-20.562982 21.008118,21.882668 0 0 1 13.82291,-20.56298 21.008118,21.882668 0 0 1 23.278354,6.49707"
       sodipodi:open="true"
       transform="matrix(-0.00139391,-0.99999903,-0.99999917,0.00128472,0,0)" />
    <path
       style="fill:none;stroke:#000000;stroke-width:0.72200006;stroke-linecap:butt;stroke-linejoin:miter;stroke-miterlimit:4;stroke-dasharray:none;stroke-opacity:1"
       d="m 119.88952,78.918994 -14.081,-10.829448"
       id="path838-6-6"
       inkscape:connector-curvature="0" />
    <path
       style="fill:none;stroke:#000000;stroke-width:0.72200006;stroke-linecap:butt;stroke-linejoin:miter;stroke-miterlimit:4;stroke-dasharray:none;stroke-opacity:1"
       d="M 91.757792,78.955125 105.80852,68.089546"
       id="path840-3-9"
       inkscape:connector-curvature="0" />
    <path
       style="fill:#ff0000;fill-opacity:1;stroke:#000000;stroke-width:0;stroke-linecap:butt;stroke-linejoin:miter;stroke-miterlimit:4;stroke-dasharray:none;stroke-opacity:1"
       d="m 40.806433,108.52576 -9.477021,7.74991 19.087827,-0.16651 z"
       id="path1591-1"
       inkscape:connector-curvature="0" />
    <path
       style="opacity:1;fill:#ff0000;fill-opacity:1;stroke:#000000;stroke-width:0.5;stroke-linejoin:miter;stroke-miterlimit:4;stroke-dasharray:none;stroke-dashoffset:0;stroke-opacity:1"
       id="path815-9-5-8"
       sodipodi:type="arc"
       sodipodi:cx="-127.91705"
       sodipodi:cy="-39.857628"
       sodipodi:rx="14.848292"
       sodipodi:ry="14.848291"
       sodipodi:start="0.6981317"
       sodipodi:end="5.5850536"
       d="m -116.5426,-30.31333 a 14.848292,14.848291 0 0 1 -16.45287,4.408532 14.848292,14.848291 0 0 1 -9.76988,-13.95283 14.848292,14.848291 0 0 1 9.76988,-13.95283 14.848292,14.848291 0 0 1 16.45287,4.408532"
       sodipodi:open="true"
       transform="matrix(-0.00872314,-0.99996195,-0.99996195,0.00872314,0,0)" />
    <path
       style="fill:#ff0000;fill-opacity:1;stroke:#000000;stroke-width:0.5;stroke-linecap:butt;stroke-linejoin:miter;stroke-miterlimit:4;stroke-dasharray:none;stroke-opacity:1"
       d="m 31.329412,116.27567 9.477021,-7.74992"
       id="path840-3-94"
       inkscape:connector-curvature="0" />
    <path
       style="fill:#ff0000;fill-opacity:1;stroke:#000000;stroke-width:0.5;stroke-linecap:butt;stroke-linejoin:miter;stroke-miterlimit:4;stroke-dasharray:none;stroke-opacity:1"
       d="m 50.417239,116.10917 -9.610806,-7.58342"
       id="path838-6-7"
       inkscape:connector-curvature="0" />
    <path
       style="opacity:1;fill:#ffffff;fill-opacity:1;stroke:#000000;stroke-width:0.5;stroke-linejoin:miter;stroke-miterlimit:4;stroke-dasharray:none;stroke-dashoffset:0;stroke-opacity:1"
       id="path815-9-5-0-8"
       sodipodi:type="arc"
       sodipodi:cx="90.033844"
       sodipodi:cy="-40.150871"
       sodipodi:rx="14.848292"
       sodipodi:ry="14.848291"
       sodipodi:start="0.6981317"
       sodipodi:end="5.5850536"
       d="m 101.4083,-30.606574 a 14.848292,14.848291 0 0 1 -16.452871,4.408533 14.848292,14.848291 0 0 1 -9.769877,-13.95283 14.848292,14.848291 0 0 1 9.769877,-13.95283 14.848292,14.848291 0 0 1 16.452871,4.408532"
       sodipodi:open="true"
       transform="rotate(89.653541)" />
    <path
       style="fill:none;stroke:#000000;stroke-width:0.5;stroke-linecap:butt;stroke-linejoin:miter;stroke-miterlimit:4;stroke-dasharray:none;stroke-opacity:1"
       d="m 50.306837,101.10724 -9.497754,7.72452"
       id="path838-6-6-6"
       inkscape:connector-curvature="0" />
    <path
       style="fill:none;stroke:#000000;stroke-width:0.5;stroke-linecap:butt;stroke-linejoin:miter;stroke-miterlimit:4;stroke-dasharray:none;stroke-opacity:1"
       d="m 31.218633,101.22267 9.59045,7.60909"
       id="path840-3-9-9"
       inkscape:connector-curvature="0" />
    <path
       style="fill:#ff0000;fill-opacity:1;stroke:#000000;stroke-width:0;stroke-linecap:butt;stroke-linejoin:miter;stroke-miterlimit:4;stroke-dasharray:none;stroke-opacity:1"
       d="m 170.80646,108.52569 -9.47768,7.7491 19.08784,-0.16483 z"
       id="path1591-1-2"
       inkscape:connector-curvature="0" />
    <path
       style="opacity:1;fill:#ff0000;fill-opacity:1;stroke:#000000;stroke-width:0.5;stroke-linejoin:miter;stroke-miterlimit:4;stroke-dasharray:none;stroke-dashoffset:0;stroke-opacity:1"
       id="path815-9-5-8-6"
       sodipodi:type="arc"
       sodipodi:cx="-129.0365"
       sodipodi:cy="-169.86554"
       sodipodi:rx="14.848292"
       sodipodi:ry="14.848291"
       sodipodi:start="0.6981317"
       sodipodi:end="5.5850536"
       d="m -117.66205,-160.32124 a 14.848292,14.848291 0 0 1 -16.45286,4.40853 14.848292,14.848291 0 0 1 -9.76988,-13.95283 14.848292,14.848291 0 0 1 9.76988,-13.95283 14.848292,14.848291 0 0 1 16.45286,4.40853"
       sodipodi:open="true"
       transform="matrix(-0.00863744,-0.9999627,-0.9999627,0.00863744,0,0)" />
    <path
       style="fill:#ff0000;fill-opacity:1;stroke:#000000;stroke-width:0.5;stroke-linecap:butt;stroke-linejoin:miter;stroke-miterlimit:4;stroke-dasharray:none;stroke-opacity:1"
       d="m 161.32878,116.27479 9.47768,-7.74911"
       id="path840-3-94-7"
       inkscape:connector-curvature="0" />
    <path
       style="fill:#ff0000;fill-opacity:1;stroke:#000000;stroke-width:0.5;stroke-linecap:butt;stroke-linejoin:miter;stroke-miterlimit:4;stroke-dasharray:none;stroke-opacity:1"
       d="m 180.41662,116.10992 -9.61016,-7.58424"
       id="path838-6-7-1"
       inkscape:connector-curvature="0" />
    <path
       style="opacity:1;fill:#ffffff;fill-opacity:1;stroke:#000000;stroke-width:0.5;stroke-linejoin:miter;stroke-miterlimit:4;stroke-dasharray:none;stroke-dashoffset:0;stroke-opacity:1"
       id="path815-9-5-0-8-4"
       sodipodi:type="arc"
       sodipodi:cx="90.805283"
       sodipodi:cy="-170.15451"
       sodipodi:rx="14.848292"
       sodipodi:ry="14.848291"
       sodipodi:start="0.6981317"
       sodipodi:end="5.5850536"
       d="m 102.17973,-160.61021 a 14.848292,14.848291 0 0 1 -16.452862,4.40853 14.848292,14.848291 0 0 1 -9.769878,-13.95283 14.848292,14.848291 0 0 1 9.769877,-13.95283 14.848292,14.848291 0 0 1 16.452863,4.40853"
       sodipodi:open="true"
       transform="rotate(89.658451)" />
    <path
       style="fill:none;stroke:#000000;stroke-width:0.5;stroke-linecap:butt;stroke-linejoin:miter;stroke-miterlimit:4;stroke-dasharray:none;stroke-opacity:1"
       d="m 180.3075,101.10799 -9.49841,7.72371"
       id="path838-6-6-6-9"
       inkscape:connector-curvature="0" />
    <path
       style="fill:none;stroke:#000000;stroke-width:0.5;stroke-linecap:butt;stroke-linejoin:miter;stroke-miterlimit:4;stroke-dasharray:none;stroke-opacity:1"
       d="m 161.21928,101.22179 9.58981,7.60991"
       id="path840-3-9-9-2"
       inkscape:connector-curvature="0" />
    <path
       style="fill:#ff0000;fill-opacity:1;stroke:#000000;stroke-width:0;stroke-linecap:butt;stroke-linejoin:miter;stroke-miterlimit:4;stroke-dasharray:none;stroke-opacity:1"
       d="m 40.807552,193.52106 -9.533998,7.67972 19.088538,-0.0255 z"
       id="path1591-1-9"
       inkscape:connector-curvature="0" />
    <path
       style="opacity:1;fill:#ff0000;fill-opacity:1;stroke:#000000;stroke-width:0.5;stroke-linejoin:miter;stroke-miterlimit:4;stroke-dasharray:none;stroke-dashoffset:0;stroke-opacity:1"
       id="path815-9-5-8-5"
       sodipodi:type="arc"
       sodipodi:cx="-212.617"
       sodipodi:cy="-40.548012"
       sodipodi:rx="14.848292"
       sodipodi:ry="14.848294"
       sodipodi:start="0.6981317"
       sodipodi:end="5.5850536"
       d="m -201.24255,-31.003712 a 14.848292,14.848294 0 0 1 -16.45287,4.408533 14.848292,14.848294 0 0 1 -9.76988,-13.952833 14.848292,14.848294 0 0 1 9.76988,-13.952832 14.848292,14.848294 0 0 1 16.45287,4.408533"
       sodipodi:open="true"
       transform="matrix(-0.0013382,-0.9999991,-0.9999991,0.0013382,0,0)" />
    <path
       style="fill:#ff0000;fill-opacity:1;stroke:#000000;stroke-width:0.5;stroke-linecap:butt;stroke-linejoin:miter;stroke-miterlimit:4;stroke-dasharray:none;stroke-opacity:1"
       d="m 31.273554,201.20078 9.533998,-7.67972"
       id="path840-3-94-2"
       inkscape:connector-curvature="0" />
    <path
       style="fill:#ff0000;fill-opacity:1;stroke:#000000;stroke-width:0.5;stroke-linecap:butt;stroke-linejoin:miter;stroke-miterlimit:4;stroke-dasharray:none;stroke-opacity:1"
       d="m 50.362092,201.17523 -9.55454,-7.65417"
       id="path838-6-7-5"
       inkscape:connector-curvature="0" />
    <path
       style="opacity:1;fill:#ffffff;fill-opacity:1;stroke:#000000;stroke-width:0.5;stroke-linejoin:miter;stroke-miterlimit:4;stroke-dasharray:none;stroke-dashoffset:0;stroke-opacity:1"
       id="path815-9-5-0-8-0"
       sodipodi:type="arc"
       sodipodi:cx="174.73209"
       sodipodi:cy="-41.067875"
       sodipodi:rx="14.848292"
       sodipodi:ry="14.848294"
       sodipodi:start="0.6981317"
       sodipodi:end="5.5850536"
       d="m 186.10654,-31.523575 a 14.848292,14.848294 0 0 1 -16.45287,4.408533 14.848292,14.848294 0 0 1 -9.76988,-13.952833 14.848292,14.848294 0 0 1 9.76988,-13.952832 14.848292,14.848294 0 0 1 16.45287,4.408532"
       sodipodi:open="true"
       transform="rotate(90.076673)" />
    <path
       style="fill:none;stroke:#000000;stroke-width:0.5;stroke-linecap:butt;stroke-linejoin:miter;stroke-miterlimit:4;stroke-dasharray:none;stroke-opacity:1"
       d="m 50.362482,186.1729 -9.55454,7.65417"
       id="path838-6-6-6-0"
       inkscape:connector-curvature="0" />
    <path
       style="fill:none;stroke:#000000;stroke-width:0.5;stroke-linecap:butt;stroke-linejoin:miter;stroke-miterlimit:4;stroke-dasharray:none;stroke-opacity:1"
       d="m 31.273944,186.14736 9.533998,7.67971"
       id="path840-3-9-9-6"
       inkscape:connector-curvature="0" />
    <path
       style="fill:#ff0000;fill-opacity:1;stroke:#000000;stroke-width:0;stroke-linecap:butt;stroke-linejoin:miter;stroke-miterlimit:4;stroke-dasharray:none;stroke-opacity:1"
       d="m 170.80757,193.52108 -9.534,7.67972 19.08854,-0.0255 z"
       id="path1591-1-2-0"
       inkscape:connector-curvature="0" />
    <path
       style="opacity:1;fill:#ff0000;fill-opacity:1;stroke:#000000;stroke-width:0.5;stroke-linejoin:miter;stroke-miterlimit:4;stroke-dasharray:none;stroke-dashoffset:0;stroke-opacity:1"
       id="path815-9-5-8-6-6"
       sodipodi:type="arc"
       sodipodi:cx="-212.79099"
       sodipodi:cy="-170.55118"
       sodipodi:rx="14.848292"
       sodipodi:ry="14.848294"
       sodipodi:start="0.6981317"
       sodipodi:end="5.5850536"
       d="m -201.41653,-161.00688 a 14.848292,14.848294 0 0 1 -16.45287,4.40853 14.848292,14.848294 0 0 1 -9.76988,-13.95283 14.848292,14.848294 0 0 1 9.76988,-13.95283 14.848292,14.848294 0 0 1 16.45287,4.40853"
       sodipodi:open="true"
       transform="matrix(-0.0013382,-0.9999991,-0.9999991,0.0013382,0,0)" />
    <path
       style="fill:#ff0000;fill-opacity:1;stroke:#000000;stroke-width:0.5;stroke-linecap:butt;stroke-linejoin:miter;stroke-miterlimit:4;stroke-dasharray:none;stroke-opacity:1"
       d="m 161.27357,201.2008 9.534,-7.67972"
       id="path840-3-94-7-1"
       inkscape:connector-curvature="0" />
    <path
       style="fill:#ff0000;fill-opacity:1;stroke:#000000;stroke-width:0.5;stroke-linecap:butt;stroke-linejoin:miter;stroke-miterlimit:4;stroke-dasharray:none;stroke-opacity:1"
       d="m 180.36211,201.17525 -9.55454,-7.65417"
       id="path838-6-7-1-4"
       inkscape:connector-curvature="0" />
    <path
       style="opacity:1;fill:#ffffff;fill-opacity:1;stroke:#000000;stroke-width:0.5;stroke-linejoin:miter;stroke-miterlimit:4;stroke-dasharray:none;stroke-dashoffset:0;stroke-opacity:1"
       id="path815-9-5-0-8-4-9"
       sodipodi:type="arc"
       sodipodi:cx="174.55811"
       sodipodi:cy="-171.06453"
       sodipodi:rx="14.848292"
       sodipodi:ry="14.848294"
       sodipodi:start="0.6981317"
       sodipodi:end="5.5850536"
       d="m 185.93256,-161.52023 a 14.848292,14.848294 0 0 1 -16.45287,4.40853 14.848292,14.848294 0 0 1 -9.76988,-13.95283 14.848292,14.848294 0 0 1 9.76988,-13.95283 14.848292,14.848294 0 0 1 16.45287,4.40853"
       sodipodi:open="true"
       transform="rotate(90.076673)" />
    <path
       style="fill:none;stroke:#000000;stroke-width:0.5;stroke-linecap:butt;stroke-linejoin:miter;stroke-miterlimit:4;stroke-dasharray:none;stroke-opacity:1"
       d="m 180.3625,186.17292 -9.55454,7.65417"
       id="path838-6-6-6-9-4"
       inkscape:connector-curvature="0" />
    <path
       style="fill:none;stroke:#000000;stroke-width:0.5;stroke-linecap:butt;stroke-linejoin:miter;stroke-miterlimit:4;stroke-dasharray:none;stroke-opacity:1"
       d="m 161.27396,186.14738 9.534,7.67971"
       id="path840-3-9-9-2-1"
       inkscape:connector-curvature="0" />
    <path
       style="fill:none;stroke:#000000;stroke-width:0.5;stroke-linecap:butt;stroke-linejoin:miter;stroke-miterlimit:4;stroke-dasharray:none;stroke-opacity:1"
       d="M 40.807943,108.52233 105.80794,68.5225"
       id="path1769"
       inkscape:connector-curvature="0" />
    <path
       style="fill:none;stroke:#000000;stroke-width:0.5;stroke-linecap:butt;stroke-linejoin:miter;stroke-miterlimit:4;stroke-dasharray:none;stroke-opacity:1"
       d="M 170.80795,108.52233 105.80794,68.5225"
       id="path1771"
       inkscape:connector-curvature="0" />
    <path
       style="fill:none;stroke:#000000;stroke-width:0.5;stroke-linecap:butt;stroke-linejoin:miter;stroke-miterlimit:4;stroke-dasharray:none;stroke-opacity:1"
       d="m 40.807551,193.82838 65.000389,39.69402 64.99963,-39.69404"
       id="path1775"
       inkscape:connector-curvature="0" />
    <path
       style="fill:#ff0000;fill-opacity:1;stroke:#000000;stroke-width:0;stroke-linecap:butt;stroke-linejoin:miter;stroke-miterlimit:4;stroke-dasharray:none;stroke-opacity:1"
       d="m 105.80793,233.52238 -13.88802,-11.07276 28.1281,0.45329 z"
       id="path1591-4"
       inkscape:connector-curvature="0" />
    <path
       style="opacity:1;fill:#ff0000;fill-opacity:1;stroke:#000000;stroke-width:0.72200006;stroke-linejoin:miter;stroke-miterlimit:4;stroke-dasharray:none;stroke-dashoffset:0;stroke-opacity:1"
       id="path815-9-5-9"
       sodipodi:type="arc"
       sodipodi:cx="204.84941"
       sodipodi:cy="-109.58173"
       sodipodi:rx="21.008118"
       sodipodi:ry="21.882668"
       sodipodi:start="0.6981317"
       sodipodi:end="5.5850536"
       d="m 220.94256,-95.515826 a 21.008118,21.882668 0 0 1 -23.27835,6.497074 21.008118,21.882668 0 0 1 -13.82292,-20.562978 21.008118,21.882668 0 0 1 13.82292,-20.56298 21.008118,21.882668 0 0 1 23.27835,6.49707"
       sodipodi:open="true"
       transform="matrix(-0.01622478,0.99986837,-0.99987014,-0.0161156,0,0)" />
    <path
       style="fill:#ff0000;fill-opacity:1;stroke:#000000;stroke-width:0.72200006;stroke-linecap:butt;stroke-linejoin:miter;stroke-miterlimit:4;stroke-dasharray:none;stroke-opacity:1"
       d="m 91.91991,222.44962 13.88803,11.07278"
       id="path840-3-4"
       inkscape:connector-curvature="0" />
    <path
       style="fill:#ff0000;fill-opacity:1;stroke:#000000;stroke-width:0.72200006;stroke-linecap:butt;stroke-linejoin:miter;stroke-miterlimit:4;stroke-dasharray:none;stroke-opacity:1"
       d="M 120.04802,222.90298 105.80794,233.5224"
       id="path838-6-67"
       inkscape:connector-curvature="0" />
    <path
       style="opacity:1;fill:none;fill-opacity:1;stroke:#000000;stroke-width:0.72200006;stroke-linejoin:miter;stroke-miterlimit:4;stroke-dasharray:none;stroke-dashoffset:0;stroke-opacity:1"
       id="path815-9-5-0-3"
       sodipodi:type="arc"
       sodipodi:cx="-258.57791"
       sodipodi:cy="-108.93869"
       sodipodi:rx="21.008118"
       sodipodi:ry="21.882668"
       sodipodi:start="0.6981317"
       sodipodi:end="5.5850536"
       d="m -242.48476,-94.872783 a 21.008118,21.882668 0 0 1 -23.27835,6.497074 21.008118,21.882668 0 0 1 -13.82292,-20.562981 21.008118,21.882668 0 0 1 13.82292,-20.56298 21.008118,21.882668 0 0 1 23.27835,6.49707"
       sodipodi:open="true"
       transform="matrix(0.01343727,-0.99990972,-0.99990824,-0.01354645,0,0)" />
    <path
       style="fill:none;stroke:#000000;stroke-width:0.72200006;stroke-linecap:butt;stroke-linejoin:miter;stroke-miterlimit:4;stroke-dasharray:none;stroke-opacity:1"
       d="M 119.73378,244.12658 105.81494,233.08949"
       id="path838-6-6-1"
       inkscape:connector-curvature="0" />
    <path
       style="fill:none;stroke:#000000;stroke-width:0.72200006;stroke-linecap:butt;stroke-linejoin:miter;stroke-miterlimit:4;stroke-dasharray:none;stroke-opacity:1"
       d="m 91.6046,243.7455 14.21034,-10.65601"
       id="path840-3-9-7"
       inkscape:connector-curvature="0" />
    <text
       xml:space="preserve"
       style="font-style:normal;font-variant:normal;font-weight:normal;font-stretch:normal;font-size:22.57777786px;line-height:1.25;font-family:'Times New Roman';-inkscape-font-specification:'Times New Roman, ';letter-spacing:0px;word-spacing:0px;fill:#000000;fill-opacity:1;stroke:none;stroke-width:0.26458332"
       x="91.404419"
       y="158.91502"
       id="text977"><tspan
         sodipodi:role="line"
         id="tspan975"
         x="91.404419"
         y="158.91502"
         style="font-style:normal;font-variant:normal;font-weight:normal;font-stretch:normal;font-size:22.57777786px;line-height:1.25;font-family:'Times New Roman';-inkscape-font-specification:'Times New Roman, ';stroke-width:0.26458332">4π</tspan></text>
  </g>
</svg>
