<?xml version="1.0" encoding="UTF-8" standalone="no"?>
<!-- Created with Inkscape (http://www.inkscape.org/) -->

<svg
   xmlns:dc="http://purl.org/dc/elements/1.1/"
   xmlns:cc="http://creativecommons.org/ns#"
   xmlns:rdf="http://www.w3.org/1999/02/22-rdf-syntax-ns#"
   xmlns:svg="http://www.w3.org/2000/svg"
   xmlns="http://www.w3.org/2000/svg"
   xmlns:sodipodi="http://sodipodi.sourceforge.net/DTD/sodipodi-0.dtd"
   xmlns:inkscape="http://www.inkscape.org/namespaces/inkscape"
   width="160.19809mm"
   height="232.97333mm"
   viewBox="0 0 160.19809 232.97333"
   version="1.1"
   id="svg8"
   inkscape:version="0.92.3 (2405546, 2018-03-11)"
   sodipodi:docname="benzen1.svg">
  <defs
     id="defs2" />
  <sodipodi:namedview
     id="base"
     pagecolor="#ffffff"
     bordercolor="#666666"
     borderopacity="1.0"
     inkscape:pageopacity="0.0"
     inkscape:pageshadow="2"
     inkscape:zoom="0.615"
     inkscape:cx="-154.09446"
     inkscape:cy="434.51978"
     inkscape:document-units="mm"
     inkscape:current-layer="layer1"
     showgrid="false"
     showguides="true"
     inkscape:guide-bbox="true"
     inkscape:window-width="1600"
     inkscape:window-height="853"
     inkscape:window-x="-4"
     inkscape:window-y="-4"
     inkscape:window-maximized="1"
     fit-margin-top="0"
     fit-margin-left="0"
     fit-margin-right="0"
     fit-margin-bottom="0" />
  <metadata
     id="metadata5">
    <rdf:RDF>
      <cc:Work
         rdf:about="">
        <dc:format>image/svg+xml</dc:format>
        <dc:type
           rdf:resource="http://purl.org/dc/dcmitype/StillImage" />
        <dc:title></dc:title>
      </cc:Work>
    </rdf:RDF>
  </metadata>
  <g
     inkscape:label="Layer 1"
     inkscape:groupmode="layer"
     id="layer1"
     transform="translate(-24.999998,-9.0266687)">
    <path
       style="fill:none;stroke:#000000;stroke-width:0.46729693;stroke-linecap:butt;stroke-linejoin:miter;stroke-miterlimit:4;stroke-dasharray:none;stroke-opacity:1"
       d="M 40.073263,168.16642 V 93.921799"
       id="path860"
       inkscape:connector-curvature="0" />
    <path
       style="fill:none;stroke:#000000;stroke-width:0.44383854;stroke-linecap:butt;stroke-linejoin:miter;stroke-miterlimit:4;stroke-dasharray:none;stroke-opacity:1"
       d="m 170.07366,100.94775 -2.7e-4,67.21865"
       id="path862"
       inkscape:connector-curvature="0" />
    <path
       style="fill:#ff0000;fill-opacity:1;stroke:#000000;stroke-width:0;stroke-linecap:butt;stroke-linejoin:miter;stroke-miterlimit:4;stroke-dasharray:none;stroke-opacity:1"
       d="m 105.07326,43.166367 -9.533996,-7.679714 19.088536,0.02553 z"
       id="path1591"
       inkscape:connector-curvature="0" />
    <path
       style="opacity:1;fill:#ff0000;fill-opacity:1;stroke:#000000;stroke-width:0.5;stroke-linejoin:miter;stroke-miterlimit:4;stroke-dasharray:none;stroke-dashoffset:0;stroke-opacity:1"
       id="path815-9-5"
       sodipodi:type="arc"
       sodipodi:cx="23.984297"
       sodipodi:cy="-105.13099"
       sodipodi:rx="14.848292"
       sodipodi:ry="14.848291"
       sodipodi:start="0.6981317"
       sodipodi:end="5.5850536"
       d="m 35.358749,-95.586691 a 14.848292,14.848291 0 0 1 -16.452867,4.408532 14.848292,14.848291 0 0 1 -9.7698776,-13.952831 14.848292,14.848291 0 0 1 9.7698776,-13.95283 14.848292,14.848291 0 0 1 16.452867,4.40853"
       sodipodi:open="true"
       transform="rotate(90.076673)" />
    <path
       style="fill:#ff0000;fill-opacity:1;stroke:#000000;stroke-width:0.5;stroke-linecap:butt;stroke-linejoin:miter;stroke-miterlimit:4;stroke-dasharray:none;stroke-opacity:1"
       d="m 95.539264,35.486653 9.533996,7.679715"
       id="path840-3"
       inkscape:connector-curvature="0" />
    <path
       style="fill:#ff0000;fill-opacity:1;stroke:#000000;stroke-width:0.5;stroke-linecap:butt;stroke-linejoin:miter;stroke-miterlimit:4;stroke-dasharray:none;stroke-opacity:1"
       d="m 114.6278,35.512197 -9.55454,7.654171"
       id="path838-6"
       inkscape:connector-curvature="0" />
    <path
       style="opacity:1;fill:none;fill-opacity:1;stroke:#000000;stroke-width:0.5;stroke-linejoin:miter;stroke-miterlimit:4;stroke-dasharray:none;stroke-dashoffset:0;stroke-opacity:1"
       id="path815-9-5-0"
       sodipodi:type="arc"
       sodipodi:cx="-62.042297"
       sodipodi:cy="-105.0162"
       sodipodi:rx="14.848292"
       sodipodi:ry="14.848291"
       sodipodi:start="0.6981317"
       sodipodi:end="5.5850536"
       d="m -50.667846,-95.471899 a 14.848292,14.848291 0 0 1 -16.452866,4.408532 14.848292,14.848291 0 0 1 -9.769878,-13.952833 14.848292,14.848291 0 0 1 9.769877,-13.95283 14.848292,14.848291 0 0 1 16.452867,4.40853"
       sodipodi:open="true"
       transform="matrix(-0.0013382,-0.9999991,-0.9999991,0.0013382,0,0)" />
    <path
       style="fill:none;stroke:#000000;stroke-width:0.5;stroke-linecap:butt;stroke-linejoin:miter;stroke-miterlimit:4;stroke-dasharray:none;stroke-opacity:1"
       d="m 114.62819,50.514526 -9.55454,-7.654171"
       id="path838-6-6"
       inkscape:connector-curvature="0" />
    <path
       style="fill:none;stroke:#000000;stroke-width:0.5;stroke-linecap:butt;stroke-linejoin:miter;stroke-miterlimit:4;stroke-dasharray:none;stroke-opacity:1"
       d="m 95.539654,50.540069 9.533996,-7.679714"
       id="path840-3-9"
       inkscape:connector-curvature="0" />
    <path
       style="fill:#ff0000;fill-opacity:1;stroke:#000000;stroke-width:0;stroke-linecap:butt;stroke-linejoin:miter;stroke-miterlimit:4;stroke-dasharray:none;stroke-opacity:1"
       d="m 40.073263,83.166376 -9.533996,-7.679714 19.088536,0.02553 z"
       id="path1591-1"
       inkscape:connector-curvature="0" />
    <path
       style="opacity:1;fill:#ff0000;fill-opacity:1;stroke:#000000;stroke-width:0.5;stroke-linejoin:miter;stroke-miterlimit:4;stroke-dasharray:none;stroke-dashoffset:0;stroke-opacity:1"
       id="path815-9-5-8"
       sodipodi:type="arc"
       sodipodi:cx="64.071251"
       sodipodi:cy="-40.184578"
       sodipodi:rx="14.848292"
       sodipodi:ry="14.848291"
       sodipodi:start="0.6981317"
       sodipodi:end="5.5850536"
       d="m 75.445703,-30.64028 a 14.848292,14.848291 0 0 1 -16.452867,4.408532 14.848292,14.848291 0 0 1 -9.769877,-13.95283 14.848292,14.848291 0 0 1 9.769877,-13.95283 14.848292,14.848291 0 0 1 16.452867,4.408532"
       sodipodi:open="true"
       transform="rotate(90.076673)" />
    <path
       style="fill:#ff0000;fill-opacity:1;stroke:#000000;stroke-width:0.5;stroke-linecap:butt;stroke-linejoin:miter;stroke-miterlimit:4;stroke-dasharray:none;stroke-opacity:1"
       d="m 30.539267,75.486662 9.533996,7.679717"
       id="path840-3-94"
       inkscape:connector-curvature="0" />
    <path
       style="fill:#ff0000;fill-opacity:1;stroke:#000000;stroke-width:0.5;stroke-linecap:butt;stroke-linejoin:miter;stroke-miterlimit:4;stroke-dasharray:none;stroke-opacity:1"
       d="m 49.627803,75.512208 -9.55454,7.654171"
       id="path838-6-7"
       inkscape:connector-curvature="0" />
    <path
       style="opacity:1;fill:#ffffff;fill-opacity:1;stroke:#000000;stroke-width:0.5;stroke-linejoin:miter;stroke-miterlimit:4;stroke-dasharray:none;stroke-dashoffset:0;stroke-opacity:1"
       id="path815-9-5-0-8"
       sodipodi:type="arc"
       sodipodi:cx="-101.95528"
       sodipodi:cy="-39.962727"
       sodipodi:rx="14.848292"
       sodipodi:ry="14.848291"
       sodipodi:start="0.6981317"
       sodipodi:end="5.5850536"
       d="m -90.580825,-30.418429 a 14.848292,14.848291 0 0 1 -16.452865,4.408532 14.848292,14.848291 0 0 1 -9.76988,-13.95283 14.848292,14.848291 0 0 1 9.76988,-13.952829 14.848292,14.848291 0 0 1 16.452865,4.408532"
       sodipodi:open="true"
       transform="matrix(-0.0013382,-0.9999991,-0.9999991,0.0013382,0,0)" />
    <path
       style="fill:#ffffff;stroke:#000000;stroke-width:0.5;stroke-linecap:butt;stroke-linejoin:miter;stroke-miterlimit:4;stroke-dasharray:none;stroke-opacity:1;fill-opacity:1"
       d="m 49.628193,90.514537 -9.55454,-7.654173"
       id="path838-6-6-6"
       inkscape:connector-curvature="0" />
    <path
       style="fill:#ffffff;stroke:#000000;stroke-width:0.5;stroke-linecap:butt;stroke-linejoin:miter;stroke-miterlimit:4;stroke-dasharray:none;stroke-opacity:1;fill-opacity:1"
       d="m 30.539657,90.540077 9.533996,-7.679713"
       id="path840-3-9-9"
       inkscape:connector-curvature="0" />
    <path
       style="fill:#ff0000;fill-opacity:1;stroke:#000000;stroke-width:0;stroke-linecap:butt;stroke-linejoin:miter;stroke-miterlimit:4;stroke-dasharray:none;stroke-opacity:1"
       d="m 170.07327,83.166376 -9.534,-7.679714 19.08854,0.02553 z"
       id="path1591-1-2"
       inkscape:connector-curvature="0" />
    <path
       style="opacity:1;fill:#ff0000;fill-opacity:1;stroke:#000000;stroke-width:0.5;stroke-linejoin:miter;stroke-miterlimit:4;stroke-dasharray:none;stroke-dashoffset:0;stroke-opacity:1"
       id="path815-9-5-8-6"
       sodipodi:type="arc"
       sodipodi:cx="63.897285"
       sodipodi:cy="-170.18446"
       sodipodi:rx="14.848292"
       sodipodi:ry="14.848291"
       sodipodi:start="0.6981317"
       sodipodi:end="5.5850536"
       d="m 75.271737,-160.64017 a 14.848292,14.848291 0 0 1 -16.452867,4.40854 14.848292,14.848291 0 0 1 -9.769877,-13.95283 14.848292,14.848291 0 0 1 9.769877,-13.95283 14.848292,14.848291 0 0 1 16.452867,4.40853"
       sodipodi:open="true"
       transform="rotate(90.076673)" />
    <path
       style="fill:#ff0000;fill-opacity:1;stroke:#000000;stroke-width:0.5;stroke-linecap:butt;stroke-linejoin:miter;stroke-miterlimit:4;stroke-dasharray:none;stroke-opacity:1"
       d="m 160.53927,75.486662 9.534,7.679716"
       id="path840-3-94-7"
       inkscape:connector-curvature="0" />
    <path
       style="fill:#ff0000;fill-opacity:1;stroke:#000000;stroke-width:0.5;stroke-linecap:butt;stroke-linejoin:miter;stroke-miterlimit:4;stroke-dasharray:none;stroke-opacity:1"
       d="m 179.62781,75.512207 -9.55454,7.654171"
       id="path838-6-7-1"
       inkscape:connector-curvature="0" />
    <path
       style="opacity:1;fill:#ffffff;fill-opacity:1;stroke:#000000;stroke-width:0.5;stroke-linejoin:miter;stroke-miterlimit:4;stroke-dasharray:none;stroke-dashoffset:0;stroke-opacity:1"
       id="path815-9-5-0-8-4"
       sodipodi:type="arc"
       sodipodi:cx="-102.12924"
       sodipodi:cy="-169.96262"
       sodipodi:rx="14.848292"
       sodipodi:ry="14.848291"
       sodipodi:start="0.6981317"
       sodipodi:end="5.5850536"
       d="m -90.75479,-160.41832 a 14.848292,14.848291 0 0 1 -16.45287,4.40853 14.848292,14.848291 0 0 1 -9.76987,-13.95283 14.848292,14.848291 0 0 1 9.76987,-13.95283 14.848292,14.848291 0 0 1 16.45287,4.40854"
       sodipodi:open="true"
       transform="matrix(-0.0013382,-0.9999991,-0.9999991,0.0013382,0,0)" />
    <path
       style="fill:#ffffff;stroke:#000000;stroke-width:0.5;stroke-linecap:butt;stroke-linejoin:miter;stroke-miterlimit:4;stroke-dasharray:none;stroke-opacity:1;fill-opacity:1"
       d="m 179.6282,90.514538 -9.55454,-7.654174"
       id="path838-6-6-6-9"
       inkscape:connector-curvature="0" />
    <path
       style="fill:#ffffff;stroke:#000000;stroke-width:0.5;stroke-linecap:butt;stroke-linejoin:miter;stroke-miterlimit:4;stroke-dasharray:none;stroke-opacity:1;fill-opacity:1"
       d="m 160.53966,90.540078 9.534,-7.679714"
       id="path840-3-9-9-2"
       inkscape:connector-curvature="0" />
    <path
       style="fill:#ff0000;fill-opacity:1;stroke:#000000;stroke-width:0;stroke-linecap:butt;stroke-linejoin:miter;stroke-miterlimit:4;stroke-dasharray:none;stroke-opacity:1"
       d="m 105.07326,208.16645 -9.533988,-7.67972 19.088538,0.0255 z"
       id="path1591-14"
       inkscape:connector-curvature="0" />
    <path
       style="opacity:1;fill:#ff0000;fill-opacity:1;stroke:#000000;stroke-width:0.5;stroke-linejoin:miter;stroke-miterlimit:4;stroke-dasharray:none;stroke-dashoffset:0;stroke-opacity:1"
       id="path815-9-5-03"
       sodipodi:type="arc"
       sodipodi:cx="188.98416"
       sodipodi:cy="-105.35172"
       sodipodi:rx="14.848292"
       sodipodi:ry="14.848294"
       sodipodi:start="0.6981317"
       sodipodi:end="5.5850536"
       d="m 200.35861,-95.807423 a 14.848292,14.848294 0 0 1 -16.45286,4.408533 14.848292,14.848294 0 0 1 -9.76988,-13.95283 14.848292,14.848294 0 0 1 9.76988,-13.95284 14.848292,14.848294 0 0 1 16.45286,4.40854"
       sodipodi:open="true"
       transform="rotate(90.076673)" />
    <path
       style="fill:#ff0000;fill-opacity:1;stroke:#000000;stroke-width:0.5;stroke-linecap:butt;stroke-linejoin:miter;stroke-miterlimit:4;stroke-dasharray:none;stroke-opacity:1"
       d="m 95.539272,200.48673 9.533988,7.67972"
       id="path840-3-0"
       inkscape:connector-curvature="0" />
    <path
       style="fill:#ff0000;fill-opacity:1;stroke:#000000;stroke-width:0.5;stroke-linecap:butt;stroke-linejoin:miter;stroke-miterlimit:4;stroke-dasharray:none;stroke-opacity:1"
       d="m 114.62781,200.51228 -9.55455,7.65417"
       id="path838-6-3"
       inkscape:connector-curvature="0" />
    <path
       style="opacity:1;fill:none;fill-opacity:1;stroke:#000000;stroke-width:0.5;stroke-linejoin:miter;stroke-miterlimit:4;stroke-dasharray:none;stroke-dashoffset:0;stroke-opacity:1"
       id="path815-9-5-0-1"
       sodipodi:type="arc"
       sodipodi:cx="-227.04214"
       sodipodi:cy="-104.79546"
       sodipodi:rx="14.848292"
       sodipodi:ry="14.848294"
       sodipodi:start="0.6981317"
       sodipodi:end="5.5850536"
       d="m -215.66769,-95.251164 a 14.848292,14.848294 0 0 1 -16.45287,4.408533 14.848292,14.848294 0 0 1 -9.76988,-13.952829 14.848292,14.848294 0 0 1 9.76988,-13.95284 14.848292,14.848294 0 0 1 16.45287,4.40854"
       sodipodi:open="true"
       transform="matrix(-0.0013382,-0.9999991,-0.9999991,0.0013382,0,0)" />
    <path
       style="fill:none;stroke:#000000;stroke-width:0.5;stroke-linecap:butt;stroke-linejoin:miter;stroke-miterlimit:4;stroke-dasharray:none;stroke-opacity:1"
       d="m 114.6282,215.51461 -9.55455,-7.65417"
       id="path838-6-6-8"
       inkscape:connector-curvature="0" />
    <path
       style="fill:none;stroke:#000000;stroke-width:0.5;stroke-linecap:butt;stroke-linejoin:miter;stroke-miterlimit:4;stroke-dasharray:none;stroke-opacity:1"
       d="m 95.539664,215.54015 9.533986,-7.67971"
       id="path840-3-9-8"
       inkscape:connector-curvature="0" />
    <path
       style="fill:#ff0000;fill-opacity:1;stroke:#000000;stroke-width:0;stroke-linecap:butt;stroke-linejoin:miter;stroke-miterlimit:4;stroke-dasharray:none;stroke-opacity:1"
       d="m 40.073263,168.16642 -9.533998,-7.67972 19.088538,0.0255 z"
       id="path1591-1-9"
       inkscape:connector-curvature="0" />
    <path
       style="opacity:1;fill:#ff0000;fill-opacity:1;stroke:#000000;stroke-width:0.5;stroke-linejoin:miter;stroke-miterlimit:4;stroke-dasharray:none;stroke-dashoffset:0;stroke-opacity:1"
       id="path815-9-5-8-5"
       sodipodi:type="arc"
       sodipodi:cx="149.07114"
       sodipodi:cy="-40.298359"
       sodipodi:rx="14.848292"
       sodipodi:ry="14.848294"
       sodipodi:start="0.6981317"
       sodipodi:end="5.5850536"
       d="m 160.44559,-30.754059 a 14.848292,14.848294 0 0 1 -16.45287,4.408533 14.848292,14.848294 0 0 1 -9.76988,-13.952833 14.848292,14.848294 0 0 1 9.76988,-13.952832 14.848292,14.848294 0 0 1 16.45287,4.408532"
       sodipodi:open="true"
       transform="rotate(90.076673)" />
    <path
       style="fill:#ff0000;fill-opacity:1;stroke:#000000;stroke-width:0.5;stroke-linecap:butt;stroke-linejoin:miter;stroke-miterlimit:4;stroke-dasharray:none;stroke-opacity:1"
       d="m 30.539265,160.4867 9.533998,7.67972"
       id="path840-3-94-2"
       inkscape:connector-curvature="0" />
    <path
       style="fill:#ff0000;fill-opacity:1;stroke:#000000;stroke-width:0.5;stroke-linecap:butt;stroke-linejoin:miter;stroke-miterlimit:4;stroke-dasharray:none;stroke-opacity:1"
       d="m 49.627803,160.51225 -9.55454,7.65417"
       id="path838-6-7-5"
       inkscape:connector-curvature="0" />
    <path
       style="opacity:1;fill:none;fill-opacity:1;stroke:#000000;stroke-width:0.5;stroke-linejoin:miter;stroke-miterlimit:4;stroke-dasharray:none;stroke-dashoffset:0;stroke-opacity:1"
       id="path815-9-5-0-8-0"
       sodipodi:type="arc"
       sodipodi:cx="-186.9552"
       sodipodi:cy="-39.848949"
       sodipodi:rx="14.848292"
       sodipodi:ry="14.848294"
       sodipodi:start="0.6981317"
       sodipodi:end="5.5850536"
       d="m -175.58075,-30.30465 a 14.848292,14.848294 0 0 1 -16.45287,4.408533 14.848292,14.848294 0 0 1 -9.76987,-13.952832 14.848292,14.848294 0 0 1 9.76987,-13.952833 14.848292,14.848294 0 0 1 16.45287,4.408533"
       sodipodi:open="true"
       transform="matrix(-0.0013382,-0.9999991,-0.9999991,0.0013382,0,0)" />
    <path
       style="fill:none;stroke:#000000;stroke-width:0.5;stroke-linecap:butt;stroke-linejoin:miter;stroke-miterlimit:4;stroke-dasharray:none;stroke-opacity:1"
       d="m 49.628193,175.51458 -9.55454,-7.65417"
       id="path838-6-6-6-0"
       inkscape:connector-curvature="0" />
    <path
       style="fill:none;stroke:#000000;stroke-width:0.5;stroke-linecap:butt;stroke-linejoin:miter;stroke-miterlimit:4;stroke-dasharray:none;stroke-opacity:1"
       d="m 30.539655,175.54012 9.533998,-7.67971"
       id="path840-3-9-9-6"
       inkscape:connector-curvature="0" />
    <path
       style="fill:#ff0000;fill-opacity:1;stroke:#000000;stroke-width:0;stroke-linecap:butt;stroke-linejoin:miter;stroke-miterlimit:4;stroke-dasharray:none;stroke-opacity:1"
       d="m 170.07328,168.1664 -9.534,-7.67972 19.08854,0.0255 z"
       id="path1591-1-2-0"
       inkscape:connector-curvature="0" />
    <path
       style="opacity:1;fill:#ff0000;fill-opacity:1;stroke:#000000;stroke-width:0.5;stroke-linejoin:miter;stroke-miterlimit:4;stroke-dasharray:none;stroke-dashoffset:0;stroke-opacity:1"
       id="path815-9-5-8-6-6"
       sodipodi:type="arc"
       sodipodi:cx="148.89716"
       sodipodi:cy="-170.29813"
       sodipodi:rx="14.848292"
       sodipodi:ry="14.848294"
       sodipodi:start="0.6981317"
       sodipodi:end="5.5850536"
       d="m 160.27161,-160.75383 a 14.848292,14.848294 0 0 1 -16.45287,4.40854 14.848292,14.848294 0 0 1 -9.76988,-13.95284 14.848292,14.848294 0 0 1 9.76988,-13.95283 14.848292,14.848294 0 0 1 16.45287,4.40853"
       sodipodi:open="true"
       transform="rotate(90.076673)" />
    <path
       style="fill:#ff0000;fill-opacity:1;stroke:#000000;stroke-width:0.5;stroke-linecap:butt;stroke-linejoin:miter;stroke-miterlimit:4;stroke-dasharray:none;stroke-opacity:1"
       d="m 160.53928,160.48668 9.534,7.67972"
       id="path840-3-94-7-1"
       inkscape:connector-curvature="0" />
    <path
       style="fill:#ff0000;fill-opacity:1;stroke:#000000;stroke-width:0.5;stroke-linecap:butt;stroke-linejoin:miter;stroke-miterlimit:4;stroke-dasharray:none;stroke-opacity:1"
       d="m 179.62782,160.51223 -9.55454,7.65417"
       id="path838-6-7-1-4"
       inkscape:connector-curvature="0" />
    <path
       style="opacity:1;fill:none;fill-opacity:1;stroke:#000000;stroke-width:0.5;stroke-linejoin:miter;stroke-miterlimit:4;stroke-dasharray:none;stroke-dashoffset:0;stroke-opacity:1"
       id="path815-9-5-0-8-4-9"
       sodipodi:type="arc"
       sodipodi:cx="-187.12917"
       sodipodi:cy="-169.84901"
       sodipodi:rx="14.848292"
       sodipodi:ry="14.848294"
       sodipodi:start="0.6981317"
       sodipodi:end="5.5850536"
       d="m -175.75471,-160.30471 a 14.848292,14.848294 0 0 1 -16.45287,4.40853 14.848292,14.848294 0 0 1 -9.76988,-13.95283 14.848292,14.848294 0 0 1 9.76988,-13.95284 14.848292,14.848294 0 0 1 16.45287,4.40854"
       sodipodi:open="true"
       transform="matrix(-0.0013382,-0.9999991,-0.9999991,0.0013382,0,0)" />
    <path
       style="fill:none;stroke:#000000;stroke-width:0.5;stroke-linecap:butt;stroke-linejoin:miter;stroke-miterlimit:4;stroke-dasharray:none;stroke-opacity:1"
       d="m 179.62821,175.51456 -9.55454,-7.65417"
       id="path838-6-6-6-9-4"
       inkscape:connector-curvature="0" />
    <path
       style="fill:none;stroke:#000000;stroke-width:0.5;stroke-linecap:butt;stroke-linejoin:miter;stroke-miterlimit:4;stroke-dasharray:none;stroke-opacity:1"
       d="m 160.53967,175.5401 9.534,-7.67971"
       id="path840-3-9-9-2-1"
       inkscape:connector-curvature="0" />
    <path
       style="fill:none;stroke:#000000;stroke-width:0.5;stroke-linecap:butt;stroke-linejoin:miter;stroke-miterlimit:4;stroke-dasharray:none;stroke-opacity:1"
       d="M 40.073654,82.860363 105.07365,42.860354"
       id="path1769"
       inkscape:connector-curvature="0" />
    <path
       style="fill:none;stroke:#000000;stroke-width:0.5;stroke-linecap:butt;stroke-linejoin:miter;stroke-miterlimit:4;stroke-dasharray:none;stroke-opacity:1"
       d="M 170.07366,82.860363 105.07365,42.860354"
       id="path1771"
       inkscape:connector-curvature="0" />
    <path
       style="fill:none;stroke:#000000;stroke-width:0.5;stroke-linecap:butt;stroke-linejoin:miter;stroke-miterlimit:4;stroke-dasharray:none;stroke-opacity:1"
       d="m 40.073262,168.16642 65.000388,39.69402 64.99963,-39.69404"
       id="path1775"
       inkscape:connector-curvature="0" />
    <text
       xml:space="preserve"
       style="font-style:normal;font-variant:normal;font-weight:normal;font-stretch:normal;font-size:22.57777786px;line-height:1.25;font-family:'Times New Roman';-inkscape-font-specification:'Times New Roman, ';letter-spacing:0px;word-spacing:0px;fill:#000000;fill-opacity:1;stroke:none;stroke-width:0.26458332"
       x="95.926888"
       y="131.01051"
       id="text977"><tspan
         sodipodi:role="line"
         id="tspan975"
         x="95.926888"
         y="131.01051"
         style="font-style:normal;font-variant:normal;font-weight:normal;font-stretch:normal;font-size:22.57777786px;line-height:1.25;font-family:'Times New Roman';-inkscape-font-specification:'Times New Roman, ';stroke-width:0.26458332">1π</tspan></text>
  </g>
</svg>
