<?xml version="1.0" encoding="UTF-8" standalone="no"?>
<!-- Created with Inkscape (http://www.inkscape.org/) -->

<svg
   xmlns:dc="http://purl.org/dc/elements/1.1/"
   xmlns:cc="http://creativecommons.org/ns#"
   xmlns:rdf="http://www.w3.org/1999/02/22-rdf-syntax-ns#"
   xmlns:svg="http://www.w3.org/2000/svg"
   xmlns="http://www.w3.org/2000/svg"
   xmlns:sodipodi="http://sodipodi.sourceforge.net/DTD/sodipodi-0.dtd"
   xmlns:inkscape="http://www.inkscape.org/namespaces/inkscape"
   width="160.20102mm"
   height="232.96857mm"
   viewBox="0 0 160.20102 232.96857"
   version="1.1"
   id="svg1836"
   inkscape:version="0.92.3 (2405546, 2018-03-11)"
   sodipodi:docname="benzen6.svg">
  <defs
     id="defs1830" />
  <sodipodi:namedview
     id="base"
     pagecolor="#ffffff"
     bordercolor="#666666"
     borderopacity="1.0"
     inkscape:pageopacity="0.0"
     inkscape:pageshadow="2"
     inkscape:zoom="0.49497475"
     inkscape:cx="-485.07778"
     inkscape:cy="533.55422"
     inkscape:document-units="mm"
     inkscape:current-layer="layer1"
     showgrid="false"
     inkscape:window-width="1600"
     inkscape:window-height="853"
     inkscape:window-x="-4"
     inkscape:window-y="-4"
     inkscape:window-maximized="1"
     fit-margin-top="0"
     fit-margin-left="0"
     fit-margin-right="0"
     fit-margin-bottom="0" />
  <metadata
     id="metadata1833">
    <rdf:RDF>
      <cc:Work
         rdf:about="">
        <dc:format>image/svg+xml</dc:format>
        <dc:type
           rdf:resource="http://purl.org/dc/dcmitype/StillImage" />
        <dc:title />
      </cc:Work>
    </rdf:RDF>
  </metadata>
  <g
     inkscape:label="Layer 1"
     inkscape:groupmode="layer"
     id="layer1"
     transform="translate(-25.733657,-34.691135)">
    <path
       style="fill:none;stroke:#000000;stroke-width:0.44747964;stroke-linecap:butt;stroke-linejoin:miter;stroke-miterlimit:4;stroke-dasharray:none;stroke-opacity:1"
       d="m 40.807551,176.90993 3.97e-4,-68.07836 v 0"
       id="path860"
       inkscape:connector-curvature="0" />
    <path
       style="fill:none;stroke:#000000;stroke-width:0.44747964;stroke-linecap:butt;stroke-linejoin:miter;stroke-miterlimit:4;stroke-dasharray:none;stroke-opacity:1"
       d="m 170.80757,176.6638 2.6e-4,-67.83228"
       id="path862"
       inkscape:connector-curvature="0" />
    <path
       style="fill:#ff0000;fill-opacity:1;stroke:#000000;stroke-width:0;stroke-linecap:butt;stroke-linejoin:miter;stroke-miterlimit:4;stroke-dasharray:none;stroke-opacity:1"
       d="m 105.80755,68.828507 -9.533997,-7.679665 19.088537,0.0255 z"
       id="path1591"
       inkscape:connector-curvature="0" />
    <path
       style="opacity:1;fill:#ff0000;fill-opacity:1;stroke:#000000;stroke-width:0.5;stroke-linejoin:miter;stroke-miterlimit:4;stroke-dasharray:none;stroke-dashoffset:0;stroke-opacity:1"
       id="path815-9-5"
       sodipodi:type="arc"
       sodipodi:cx="49.647758"
       sodipodi:cy="-105.89878"
       sodipodi:rx="14.848292"
       sodipodi:ry="14.848291"
       sodipodi:start="0.6981317"
       sodipodi:end="5.5850536"
       d="m 61.02221,-96.354483 a 14.848292,14.848291 0 0 1 -16.452867,4.408532 14.848292,14.848291 0 0 1 -9.769877,-13.952829 14.848292,14.848291 0 0 1 9.769877,-13.95283 14.848292,14.848291 0 0 1 16.452867,4.40853"
       sodipodi:open="true"
       transform="rotate(90.076673)" />
    <path
       style="fill:#ff0000;fill-opacity:1;stroke:#000000;stroke-width:0.5;stroke-linecap:butt;stroke-linejoin:miter;stroke-miterlimit:4;stroke-dasharray:none;stroke-opacity:1"
       d="m 96.273553,61.148842 9.533997,7.679675"
       id="path840-3"
       inkscape:connector-curvature="0" />
    <path
       style="fill:#ff0000;fill-opacity:1;stroke:#000000;stroke-width:0.5;stroke-linecap:butt;stroke-linejoin:miter;stroke-miterlimit:4;stroke-dasharray:none;stroke-opacity:1"
       d="m 115.36209,61.174382 -9.55454,7.654135"
       id="path838-6"
       inkscape:connector-curvature="0" />
    <path
       style="opacity:1;fill:none;fill-opacity:1;stroke:#000000;stroke-width:0.5;stroke-linejoin:miter;stroke-miterlimit:4;stroke-dasharray:none;stroke-dashoffset:0;stroke-opacity:1"
       id="path815-9-5-0"
       sodipodi:type="arc"
       sodipodi:cx="-87.707161"
       sodipodi:cy="-105.71698"
       sodipodi:rx="14.848292"
       sodipodi:ry="14.848291"
       sodipodi:start="0.6981317"
       sodipodi:end="5.5850536"
       d="m -76.332709,-96.172682 a 14.848292,14.848291 0 0 1 -16.452867,4.408532 14.848292,14.848291 0 0 1 -9.769874,-13.95283 14.848292,14.848291 0 0 1 9.769874,-13.95283 14.848292,14.848291 0 0 1 16.452867,4.40853"
       sodipodi:open="true"
       transform="matrix(-0.0013382,-0.9999991,-0.9999991,0.0013382,0,0)" />
    <path
       style="fill:none;stroke:#000000;stroke-width:0.5;stroke-linecap:butt;stroke-linejoin:miter;stroke-miterlimit:4;stroke-dasharray:none;stroke-opacity:1"
       d="M 115.36248,76.176628 105.80794,68.5225"
       id="path838-6-6"
       inkscape:connector-curvature="0" />
    <path
       style="fill:none;stroke:#000000;stroke-width:0.5;stroke-linecap:butt;stroke-linejoin:miter;stroke-miterlimit:4;stroke-dasharray:none;stroke-opacity:1"
       d="M 96.273945,76.202165 105.80794,68.5225"
       id="path840-3-9"
       inkscape:connector-curvature="0" />
    <path
       style="fill:#ff0000;fill-opacity:1;stroke:#000000;stroke-width:0;stroke-linecap:butt;stroke-linejoin:miter;stroke-miterlimit:4;stroke-dasharray:none;stroke-opacity:1"
       d="m 40.807552,108.52557 -9.533996,7.67971 19.088536,-0.0255 z"
       id="path1591-1"
       inkscape:connector-curvature="0" />
    <path
       style="opacity:1;fill:#ff0000;fill-opacity:1;stroke:#000000;stroke-width:0.5;stroke-linejoin:miter;stroke-miterlimit:4;stroke-dasharray:none;stroke-dashoffset:0;stroke-opacity:1"
       id="path815-9-5-8"
       sodipodi:type="arc"
       sodipodi:cx="-127.61954"
       sodipodi:cy="-40.661716"
       sodipodi:rx="14.848292"
       sodipodi:ry="14.848291"
       sodipodi:start="0.6981317"
       sodipodi:end="5.5850536"
       d="m -116.24509,-31.117419 a 14.848292,14.848291 0 0 1 -16.45286,4.408532 14.848292,14.848291 0 0 1 -9.76988,-13.952829 14.848292,14.848291 0 0 1 9.76988,-13.95283 14.848292,14.848291 0 0 1 16.45286,4.408532"
       sodipodi:open="true"
       transform="matrix(-0.0013382,-0.9999991,-0.9999991,0.0013382,0,0)" />
    <path
       style="fill:#ff0000;fill-opacity:1;stroke:#000000;stroke-width:0.5;stroke-linecap:butt;stroke-linejoin:miter;stroke-miterlimit:4;stroke-dasharray:none;stroke-opacity:1"
       d="m 31.273556,116.20528 9.533996,-7.67972"
       id="path840-3-94"
       inkscape:connector-curvature="0" />
    <path
       style="fill:#ff0000;fill-opacity:1;stroke:#000000;stroke-width:0.5;stroke-linecap:butt;stroke-linejoin:miter;stroke-miterlimit:4;stroke-dasharray:none;stroke-opacity:1"
       d="m 50.362092,116.17974 -9.55454,-7.65418"
       id="path838-6-7"
       inkscape:connector-curvature="0" />
    <path
       style="opacity:1;fill:none;fill-opacity:1;stroke:#000000;stroke-width:0.5;stroke-linejoin:miter;stroke-miterlimit:4;stroke-dasharray:none;stroke-dashoffset:0;stroke-opacity:1"
       id="path815-9-5-0-8"
       sodipodi:type="arc"
       sodipodi:cx="89.734177"
       sodipodi:cy="-40.954163"
       sodipodi:rx="14.848292"
       sodipodi:ry="14.848291"
       sodipodi:start="0.6981317"
       sodipodi:end="5.5850536"
       d="m 101.10863,-31.409865 a 14.848292,14.848291 0 0 1 -16.452868,4.408532 14.848292,14.848291 0 0 1 -9.769878,-13.95283 14.848292,14.848291 0 0 1 9.769877,-13.952829 14.848292,14.848291 0 0 1 16.452869,4.408532"
       sodipodi:open="true"
       transform="rotate(90.076673)" />
    <path
       style="fill:none;stroke:#000000;stroke-width:0.5;stroke-linecap:butt;stroke-linejoin:miter;stroke-miterlimit:4;stroke-dasharray:none;stroke-opacity:1"
       d="m 50.362482,101.17741 -9.55454,7.65417"
       id="path838-6-6-6"
       inkscape:connector-curvature="0" />
    <path
       style="fill:none;stroke:#000000;stroke-width:0.5;stroke-linecap:butt;stroke-linejoin:miter;stroke-miterlimit:4;stroke-dasharray:none;stroke-opacity:1"
       d="m 31.273946,101.15187 9.533996,7.67971"
       id="path840-3-9-9"
       inkscape:connector-curvature="0" />
    <path
       style="fill:#ff0000;fill-opacity:1;stroke:#000000;stroke-width:0;stroke-linecap:butt;stroke-linejoin:miter;stroke-miterlimit:4;stroke-dasharray:none;stroke-opacity:1"
       d="m 170.80756,108.52551 -9.534,7.67971 19.08854,-0.0255 z"
       id="path1591-1-2"
       inkscape:connector-curvature="0" />
    <path
       style="opacity:1;fill:#ff0000;fill-opacity:1;stroke:#000000;stroke-width:0.5;stroke-linejoin:miter;stroke-miterlimit:4;stroke-dasharray:none;stroke-dashoffset:0;stroke-opacity:1"
       id="path815-9-5-8-6"
       sodipodi:type="arc"
       sodipodi:cx="-127.79351"
       sodipodi:cy="-170.66501"
       sodipodi:rx="14.848292"
       sodipodi:ry="14.848291"
       sodipodi:start="0.6981317"
       sodipodi:end="5.5850536"
       d="m -116.41906,-161.12071 a 14.848292,14.848291 0 0 1 -16.45287,4.40853 14.848292,14.848291 0 0 1 -9.76987,-13.95283 14.848292,14.848291 0 0 1 9.76987,-13.95283 14.848292,14.848291 0 0 1 16.45287,4.40853"
       sodipodi:open="true"
       transform="matrix(-0.0013382,-0.9999991,-0.9999991,0.0013382,0,0)" />
    <path
       style="fill:#ff0000;fill-opacity:1;stroke:#000000;stroke-width:0.5;stroke-linecap:butt;stroke-linejoin:miter;stroke-miterlimit:4;stroke-dasharray:none;stroke-opacity:1"
       d="m 161.27356,116.20522 9.534,-7.67972"
       id="path840-3-94-7"
       inkscape:connector-curvature="0" />
    <path
       style="fill:#ff0000;fill-opacity:1;stroke:#000000;stroke-width:0.5;stroke-linecap:butt;stroke-linejoin:miter;stroke-miterlimit:4;stroke-dasharray:none;stroke-opacity:1"
       d="m 180.3621,116.17968 -9.55454,-7.65418"
       id="path838-6-7-1"
       inkscape:connector-curvature="0" />
    <path
       style="opacity:1;fill:none;fill-opacity:1;stroke:#000000;stroke-width:0.5;stroke-linejoin:miter;stroke-miterlimit:4;stroke-dasharray:none;stroke-dashoffset:0;stroke-opacity:1"
       id="path815-9-5-0-8-4"
       sodipodi:type="arc"
       sodipodi:cx="89.560158"
       sodipodi:cy="-170.95065"
       sodipodi:rx="14.848292"
       sodipodi:ry="14.848291"
       sodipodi:start="0.6981317"
       sodipodi:end="5.5850536"
       d="m 100.93461,-161.40636 a 14.848292,14.848291 0 0 1 -16.452867,4.40854 14.848292,14.848291 0 0 1 -9.769878,-13.95283 14.848292,14.848291 0 0 1 9.769878,-13.95283 14.848292,14.848291 0 0 1 16.452867,4.40853"
       sodipodi:open="true"
       transform="rotate(90.076673)" />
    <path
       style="fill:none;stroke:#000000;stroke-width:0.5;stroke-linecap:butt;stroke-linejoin:miter;stroke-miterlimit:4;stroke-dasharray:none;stroke-opacity:1"
       d="m 180.36249,101.17735 -9.55454,7.65417"
       id="path838-6-6-6-9"
       inkscape:connector-curvature="0" />
    <path
       style="fill:none;stroke:#000000;stroke-width:0.5;stroke-linecap:butt;stroke-linejoin:miter;stroke-miterlimit:4;stroke-dasharray:none;stroke-opacity:1"
       d="m 161.27395,101.15181 9.534,7.67971"
       id="path840-3-9-9-2"
       inkscape:connector-curvature="0" />
    <path
       style="fill:#ff0000;fill-opacity:1;stroke:#000000;stroke-width:0;stroke-linecap:butt;stroke-linejoin:miter;stroke-miterlimit:4;stroke-dasharray:none;stroke-opacity:1"
       d="m 105.80755,233.82841 -9.533989,-7.67972 19.088539,0.0255 z"
       id="path1591-14"
       inkscape:connector-curvature="0" />
    <path
       style="opacity:1;fill:#ff0000;fill-opacity:1;stroke:#000000;stroke-width:0.5;stroke-linejoin:miter;stroke-miterlimit:4;stroke-dasharray:none;stroke-dashoffset:0;stroke-opacity:1"
       id="path815-9-5-03"
       sodipodi:type="arc"
       sodipodi:cx="214.64397"
       sodipodi:cy="-106.11952"
       sodipodi:rx="14.848292"
       sodipodi:ry="14.848294"
       sodipodi:start="0.6981317"
       sodipodi:end="5.5850536"
       d="m 226.01842,-96.575223 a 14.848292,14.848294 0 0 1 -16.45287,4.408533 14.848292,14.848294 0 0 1 -9.76988,-13.95283 14.848292,14.848294 0 0 1 9.76988,-13.95283 14.848292,14.848294 0 0 1 16.45287,4.40853"
       sodipodi:open="true"
       transform="rotate(90.076673)" />
    <path
       style="fill:#ff0000;fill-opacity:1;stroke:#000000;stroke-width:0.5;stroke-linecap:butt;stroke-linejoin:miter;stroke-miterlimit:4;stroke-dasharray:none;stroke-opacity:1"
       d="m 96.273561,226.14869 9.533989,7.67972"
       id="path840-3-0"
       inkscape:connector-curvature="0" />
    <path
       style="fill:#ff0000;fill-opacity:1;stroke:#000000;stroke-width:0.5;stroke-linecap:butt;stroke-linejoin:miter;stroke-miterlimit:4;stroke-dasharray:none;stroke-opacity:1"
       d="m 115.3621,226.17424 -9.55455,7.65417"
       id="path838-6-3"
       inkscape:connector-curvature="0" />
    <path
       style="opacity:1;fill:none;fill-opacity:1;stroke:#000000;stroke-width:0.5;stroke-linejoin:miter;stroke-miterlimit:4;stroke-dasharray:none;stroke-dashoffset:0;stroke-opacity:1"
       id="path815-9-5-0-1"
       sodipodi:type="arc"
       sodipodi:cx="-252.7028"
       sodipodi:cy="-105.49624"
       sodipodi:rx="14.848292"
       sodipodi:ry="14.848294"
       sodipodi:start="0.6981317"
       sodipodi:end="5.5850536"
       d="m -241.32835,-95.951939 a 14.848292,14.848294 0 0 1 -16.45287,4.408533 14.848292,14.848294 0 0 1 -9.76988,-13.952834 14.848292,14.848294 0 0 1 9.76988,-13.95283 14.848292,14.848294 0 0 1 16.45287,4.40853"
       sodipodi:open="true"
       transform="matrix(-0.0013382,-0.9999991,-0.9999991,0.0013382,0,0)" />
    <path
       style="fill:none;stroke:#000000;stroke-width:0.5;stroke-linecap:butt;stroke-linejoin:miter;stroke-miterlimit:4;stroke-dasharray:none;stroke-opacity:1"
       d="m 115.36249,241.17657 -9.55455,-7.65417"
       id="path838-6-6-8"
       inkscape:connector-curvature="0" />
    <path
       style="fill:none;stroke:#000000;stroke-width:0.5;stroke-linecap:butt;stroke-linejoin:miter;stroke-miterlimit:4;stroke-dasharray:none;stroke-opacity:1"
       d="m 96.273953,241.20211 9.533987,-7.67971"
       id="path840-3-9-8"
       inkscape:connector-curvature="0" />
    <path
       style="fill:#ff0000;fill-opacity:1;stroke:#000000;stroke-width:0;stroke-linecap:butt;stroke-linejoin:miter;stroke-miterlimit:4;stroke-dasharray:none;stroke-opacity:1"
       d="m 40.807552,193.52106 -9.533998,7.67972 19.088538,-0.0255 z"
       id="path1591-1-9"
       inkscape:connector-curvature="0" />
    <path
       style="opacity:1;fill:#ff0000;fill-opacity:1;stroke:#000000;stroke-width:0.5;stroke-linejoin:miter;stroke-miterlimit:4;stroke-dasharray:none;stroke-dashoffset:0;stroke-opacity:1"
       id="path815-9-5-8-5"
       sodipodi:type="arc"
       sodipodi:cx="-212.617"
       sodipodi:cy="-40.548012"
       sodipodi:rx="14.848292"
       sodipodi:ry="14.848294"
       sodipodi:start="0.6981317"
       sodipodi:end="5.5850536"
       d="m -201.24255,-31.003712 a 14.848292,14.848294 0 0 1 -16.45287,4.408533 14.848292,14.848294 0 0 1 -9.76988,-13.952833 14.848292,14.848294 0 0 1 9.76988,-13.952832 14.848292,14.848294 0 0 1 16.45287,4.408533"
       sodipodi:open="true"
       transform="matrix(-0.0013382,-0.9999991,-0.9999991,0.0013382,0,0)" />
    <path
       style="fill:#ff0000;fill-opacity:1;stroke:#000000;stroke-width:0.5;stroke-linecap:butt;stroke-linejoin:miter;stroke-miterlimit:4;stroke-dasharray:none;stroke-opacity:1"
       d="m 31.273554,201.20078 9.533998,-7.67972"
       id="path840-3-94-2"
       inkscape:connector-curvature="0" />
    <path
       style="fill:#ff0000;fill-opacity:1;stroke:#000000;stroke-width:0.5;stroke-linecap:butt;stroke-linejoin:miter;stroke-miterlimit:4;stroke-dasharray:none;stroke-opacity:1"
       d="m 50.362092,201.17523 -9.55454,-7.65417"
       id="path838-6-7-5"
       inkscape:connector-curvature="0" />
    <path
       style="opacity:1;fill:#ffffff;fill-opacity:1;stroke:#000000;stroke-width:0.5;stroke-linejoin:miter;stroke-miterlimit:4;stroke-dasharray:none;stroke-dashoffset:0;stroke-opacity:1"
       id="path815-9-5-0-8-0"
       sodipodi:type="arc"
       sodipodi:cx="174.73209"
       sodipodi:cy="-41.067875"
       sodipodi:rx="14.848292"
       sodipodi:ry="14.848294"
       sodipodi:start="0.6981317"
       sodipodi:end="5.5850536"
       d="m 186.10654,-31.523575 a 14.848292,14.848294 0 0 1 -16.45287,4.408533 14.848292,14.848294 0 0 1 -9.76988,-13.952833 14.848292,14.848294 0 0 1 9.76988,-13.952832 14.848292,14.848294 0 0 1 16.45287,4.408532"
       sodipodi:open="true"
       transform="rotate(90.076673)" />
    <path
       style="fill:none;stroke:#000000;stroke-width:0.5;stroke-linecap:butt;stroke-linejoin:miter;stroke-miterlimit:4;stroke-dasharray:none;stroke-opacity:1"
       d="m 50.362482,186.1729 -9.55454,7.65417"
       id="path838-6-6-6-0"
       inkscape:connector-curvature="0" />
    <path
       style="fill:none;stroke:#000000;stroke-width:0.5;stroke-linecap:butt;stroke-linejoin:miter;stroke-miterlimit:4;stroke-dasharray:none;stroke-opacity:1"
       d="m 31.273944,186.14736 9.533998,7.67971"
       id="path840-3-9-9-6"
       inkscape:connector-curvature="0" />
    <path
       style="fill:#ff0000;fill-opacity:1;stroke:#000000;stroke-width:0;stroke-linecap:butt;stroke-linejoin:miter;stroke-miterlimit:4;stroke-dasharray:none;stroke-opacity:1"
       d="m 170.80757,193.52108 -9.534,7.67972 19.08854,-0.0255 z"
       id="path1591-1-2-0"
       inkscape:connector-curvature="0" />
    <path
       style="opacity:1;fill:#ff0000;fill-opacity:1;stroke:#000000;stroke-width:0.5;stroke-linejoin:miter;stroke-miterlimit:4;stroke-dasharray:none;stroke-dashoffset:0;stroke-opacity:1"
       id="path815-9-5-8-6-6"
       sodipodi:type="arc"
       sodipodi:cx="-212.79099"
       sodipodi:cy="-170.55118"
       sodipodi:rx="14.848292"
       sodipodi:ry="14.848294"
       sodipodi:start="0.6981317"
       sodipodi:end="5.5850536"
       d="m -201.41653,-161.00688 a 14.848292,14.848294 0 0 1 -16.45287,4.40853 14.848292,14.848294 0 0 1 -9.76988,-13.95283 14.848292,14.848294 0 0 1 9.76988,-13.95283 14.848292,14.848294 0 0 1 16.45287,4.40853"
       sodipodi:open="true"
       transform="matrix(-0.0013382,-0.9999991,-0.9999991,0.0013382,0,0)" />
    <path
       style="fill:#ff0000;fill-opacity:1;stroke:#000000;stroke-width:0.5;stroke-linecap:butt;stroke-linejoin:miter;stroke-miterlimit:4;stroke-dasharray:none;stroke-opacity:1"
       d="m 161.27357,201.2008 9.534,-7.67972"
       id="path840-3-94-7-1"
       inkscape:connector-curvature="0" />
    <path
       style="fill:#ff0000;fill-opacity:1;stroke:#000000;stroke-width:0.5;stroke-linecap:butt;stroke-linejoin:miter;stroke-miterlimit:4;stroke-dasharray:none;stroke-opacity:1"
       d="m 180.36211,201.17525 -9.55454,-7.65417"
       id="path838-6-7-1-4"
       inkscape:connector-curvature="0" />
    <path
       style="opacity:1;fill:#ffffff;fill-opacity:1;stroke:#000000;stroke-width:0.5;stroke-linejoin:miter;stroke-miterlimit:4;stroke-dasharray:none;stroke-dashoffset:0;stroke-opacity:1"
       id="path815-9-5-0-8-4-9"
       sodipodi:type="arc"
       sodipodi:cx="174.55811"
       sodipodi:cy="-171.06453"
       sodipodi:rx="14.848292"
       sodipodi:ry="14.848294"
       sodipodi:start="0.6981317"
       sodipodi:end="5.5850536"
       d="m 185.93256,-161.52023 a 14.848292,14.848294 0 0 1 -16.45287,4.40853 14.848292,14.848294 0 0 1 -9.76988,-13.95283 14.848292,14.848294 0 0 1 9.76988,-13.95283 14.848292,14.848294 0 0 1 16.45287,4.40853"
       sodipodi:open="true"
       transform="rotate(90.076673)" />
    <path
       style="fill:none;stroke:#000000;stroke-width:0.5;stroke-linecap:butt;stroke-linejoin:miter;stroke-miterlimit:4;stroke-dasharray:none;stroke-opacity:1"
       d="m 180.3625,186.17292 -9.55454,7.65417"
       id="path838-6-6-6-9-4"
       inkscape:connector-curvature="0" />
    <path
       style="fill:none;stroke:#000000;stroke-width:0.5;stroke-linecap:butt;stroke-linejoin:miter;stroke-miterlimit:4;stroke-dasharray:none;stroke-opacity:1"
       d="m 161.27396,186.14738 9.534,7.67971"
       id="path840-3-9-9-2-1"
       inkscape:connector-curvature="0" />
    <path
       style="fill:none;stroke:#000000;stroke-width:0.5;stroke-linecap:butt;stroke-linejoin:miter;stroke-miterlimit:4;stroke-dasharray:none;stroke-opacity:1"
       d="M 40.807943,108.52233 105.80794,68.5225"
       id="path1769"
       inkscape:connector-curvature="0" />
    <path
       style="fill:none;stroke:#000000;stroke-width:0.5;stroke-linecap:butt;stroke-linejoin:miter;stroke-miterlimit:4;stroke-dasharray:none;stroke-opacity:1"
       d="M 170.80795,108.52233 105.80794,68.5225"
       id="path1771"
       inkscape:connector-curvature="0" />
    <path
       style="fill:none;stroke:#000000;stroke-width:0.5;stroke-linecap:butt;stroke-linejoin:miter;stroke-miterlimit:4;stroke-dasharray:none;stroke-opacity:1"
       d="m 40.807551,193.82838 65.000389,39.69402 64.99963,-39.69404"
       id="path1775"
       inkscape:connector-curvature="0" />
    <text
       xml:space="preserve"
       style="font-style:normal;font-variant:normal;font-weight:normal;font-stretch:normal;font-size:22.57777786px;line-height:1.25;font-family:'Times New Roman';-inkscape-font-specification:'Times New Roman, ';letter-spacing:0px;word-spacing:0px;fill:#000000;fill-opacity:1;stroke:none;stroke-width:0.26458332"
       x="94.239777"
       y="156.84671"
       id="text977"><tspan
         sodipodi:role="line"
         id="tspan975"
         x="94.239777"
         y="156.84671"
         style="font-style:normal;font-variant:normal;font-weight:normal;font-stretch:normal;font-size:22.57777786px;line-height:1.25;font-family:'Times New Roman';-inkscape-font-specification:'Times New Roman, ';stroke-width:0.26458332">6π</tspan></text>
  </g>
</svg>
